#N canvas 0 44 220 518 10;
#X declare -path . -path include;
#X declare -stdpath extra/iemlib;
#X declare -stdpath extra/ggee;
#N canvas 220 50 453 328 INIT 0;
#X obj 15 91 loadbang;
#X obj 15 12 declare -path . -path include;
#X obj 258 24 r Aufmerksamkeitsspanne;
#X obj 313 50 * 1000;
#X obj 258 121 *;
#X obj 258 74 t a b;
#X obj 285 98 samplerate~;
#X msg 258 143 resize \$1;
#X obj 258 165 s Kollektivgedächtnis;
#X obj 313 72 s buffer_in_ms;
#X obj 15 33 declare -stdpath extra/iemlib;
#X obj 15 55 declare -stdpath extra/ggee;
#X msg 15 112 \; pd dsp 1 \; threshold 90 \; debounce 200 \; Aufmerksamkeitsspanne
40 \; groupmin 0 \; groupmax 7 \; rolemin 0 \; rolemax 7 \; individualmin
0 \; individualmax 63 \; pitch 1 \; gemeinsam 1000 \; individuell 80
\; mengenvolumen 0.8 \;;
#X connect 0 0 12 0;
#X connect 2 0 3 0;
#X connect 2 0 5 0;
#X connect 3 0 9 0;
#X connect 4 0 7 0;
#X connect 5 0 4 0;
#X connect 5 1 6 0;
#X connect 6 0 4 1;
#X connect 7 0 8 0;
#X restore 8 14 pd INIT;
#X text 7 466 Aufmerksamkeitsspanne 40s:;
#X obj 8 482 table Kollektivgedächtnis 100;
#N canvas 220 44 583 546 Menge 0;
#X obj 168 17 hsl 128 20 10 10000 1 0 gemeinsam gemeinsam gemeinsam
20 10 0 14 -204786 -1 -1 11767 1;
#X obj 305 17 hsl 128 20 10 10000 1 0 individuell individuell individuell
20 10 0 14 -204786 -1 -1 0 1;
#X obj 60 18 tgl 20 0 mitmachen \$0.bli mitmachen 25 10 0 14 -204786
-1 -1 0 1;
#X obj 175 63 r gemeinsam;
#X floatatom 175 85 5 0 0 0 - - -;
#X floatatom 311 90 5 0 0 0 - - -;
#X obj 313 67 r individuell;
#X obj 206 289 Gruppe 0;
#X obj 63 122 nbx 5 14 -1e+37 1e+37 0 0 pitch pitch pitch 0 -8 0 10
-262144 -1 -1 1 256;
#X obj 160 130 hradio 15 1 0 8 groupmin groupmin groupmin 0 -8 0 10
-262144 -1 -1 0;
#X obj 160 161 hradio 15 1 0 8 groupmax groupmax groupmax 0 -8 0 10
-262144 -1 -1 7;
#X obj 363 129 hradio 15 1 0 8 rolemin rolemin rolemin 0 -8 0 10 -262144
-1 -1 6;
#X obj 363 160 hradio 15 1 0 8 rolemax rolemax rolemax 0 -8 0 10 -262144
-1 -1 6;
#X obj 265 289 Gruppe 1;
#X obj 321 289 Gruppe 2;
#X obj 377 288 Gruppe 3;
#X obj 206 312 Gruppe 4;
#X obj 265 312 Gruppe 5;
#X obj 321 312 Gruppe 6;
#X obj 377 311 Gruppe 7;
#X obj 135 228 nbx 5 14 0 63 0 0 individualmin individualmin individualmin
0 -8 0 10 -262144 -1 -1 0 256;
#X obj 223 230 nbx 5 14 0 63 0 0 individualmax individualmax individualmax
0 -8 0 10 -262144 -1 -1 7 256;
#X floatatom 447 88 5 0 0 0 - - -;
#X floatatom 304 111 5 0 0 0 - - -;
#X obj 64 392 hsl 160 20 0 1 0 0 mengenvolumen mengenvolumen mengenvolumen
20 10 0 14 -261234 -1 -1 6720 1;
#N canvas 220 44 362 546 Archiv 0;
#X symbolatom 18 31 40 0 0 0 - - -;
#N canvas 286 218 264 386 write_cue_file 0;
#X obj 110 110 r eventlist;
#X obj 47 136 list append;
#X obj 47 252 list split 1;
#X obj 47 189 until;
#X obj 47 227 list append;
#X obj 47 162 t b a;
#X obj 150 208 b;
#X msg 47 277 add \$1;
#X obj 28 49 t a b b;
#X msg 201 247 clear;
#X msg 28 308 write files/\$1.cue cr;
#X obj 28 24 inlet;
#X obj 47 346 textfile;
#X connect 0 0 1 1;
#X connect 1 0 5 0;
#X connect 2 0 7 0;
#X connect 2 1 4 1;
#X connect 2 2 6 0;
#X connect 3 0 4 0;
#X connect 4 0 2 0;
#X connect 5 0 3 0;
#X connect 5 1 4 1;
#X connect 6 0 3 1;
#X connect 7 0 12 0;
#X connect 8 0 10 0;
#X connect 8 1 1 0;
#X connect 8 2 9 0;
#X connect 9 0 12 0;
#X connect 10 0 12 0;
#X connect 11 0 8 0;
#X restore 45 74 pd write_cue_file;
#X obj 18 50 t a a;
#N canvas 300 236 403 156 write_sound_file 0;
#X obj 29 21 inlet;
#X obj 29 71 soundfiler;
#X msg 29 48 write -wave -bytes 3 files/\$1.wav Kollektivgedächtnis
;
#X connect 0 0 2 0;
#X connect 2 0 1 0;
#X restore 18 109 pd write_sound_file;
#X text 18 12 - SCHREIBEN -;
#X text 18 142 - LESEN -;
#N canvas 286 218 322 468 read_cue_file 0;
#X obj 29 23 inlet;
#X obj 46 140 textfile;
#X msg 63 91 read files/\$1.cue cr \, rewind;
#X obj 46 117 until;
#X msg 29 213 1664.67 2159.32 2668.19 3200.36 3697.82 4175.06 4616.49
5089.07 5568.37 6019.68 6469.34 6928.34 7384.1 7844.35 8321.36 8796.1
9276.87 9765.9 10239.8 10701.5 11172.3 11624.7 12083.2 12550.5 13017.1
13474.6 13931.2 14411.7 14877.8 15329.5 15779.8 16230.3 16688.5 17128.3
17586.8 18042.4 18510.6 18970.9 19423.3 19880.6 20339.5 20810.5 21250.7
21718.8 22167.5 22632.9 23076.3 23513.2 23974.5 24420.8 24884.4 25337.9
25807.8 26262.8 26728.9 27185.3 27625.5 28078 28537.1 28975.6 29437.3
29883.2 30329.9 30783.7 31224.6 31676.9 32138.5 32591.8 33036.5 33502.1
33954.9 34390.2 34825.1 35294 35733.1 36187.5 36642.4 37090 37551.5
38011 38457.1 38926.7 39394.3 39858.6;
#X msg 46 162 add2 \$1;
#X obj 29 46 t b b a b;
#X msg 118 171 set;
#X obj 29 416 s eventlist;
#X connect 0 0 6 0;
#X connect 1 0 5 0;
#X connect 1 1 3 1;
#X connect 2 0 1 0;
#X connect 3 0 1 0;
#X connect 4 0 8 0;
#X connect 5 0 4 0;
#X connect 6 0 4 0;
#X connect 6 1 3 0;
#X connect 6 2 2 0;
#X connect 6 3 7 0;
#X connect 7 0 4 0;
#X restore 57 264 pd read_cue_file;
#N canvas 300 236 370 182 read_sound_file 0;
#X obj 29 21 inlet;
#X obj 29 71 soundfiler;
#X obj 94 104 loadbang;
#X obj 94 126 samplerate~;
#X obj 29 105 /;
#X msg 29 48 read -resize files/\$1.wav Kollektivgedächtnis;
#X obj 29 150 s Aufmerksamkeitsspanne;
#X connect 0 0 5 0;
#X connect 1 0 4 0;
#X connect 2 0 3 0;
#X connect 3 0 4 1;
#X connect 4 0 6 0;
#X connect 5 0 1 0;
#X restore 37 287 pd read_sound_file;
#X obj 18 196 list;
#X msg 18 164 klatschen;
#X msg 92 163 atmen;
#X msg 143 165 schnippen;
#X msg 209 164 hecheln;
#X obj 187 188 inlet;
#X obj 18 240 t a a a;
#X obj 18 306 outlet;
#X connect 0 0 2 0;
#X connect 2 0 3 0;
#X connect 2 1 1 0;
#X connect 8 0 14 0;
#X connect 9 0 8 0;
#X connect 10 0 8 0;
#X connect 11 0 8 0;
#X connect 12 0 8 0;
#X connect 13 0 8 0;
#X connect 14 0 15 0;
#X connect 14 1 7 0;
#X connect 14 2 6 0;
#X restore 292 477 pd Archiv;
#X msg 292 437 klatschen;
#X msg 357 437 atmen;
#X msg 402 437 schnippen;
#X msg 469 437 hecheln;
#X symbolatom 292 498 15 0 0 0 - - -;
#X connect 3 0 4 0;
#X connect 6 0 5 0;
#X connect 22 0 11 0;
#X connect 22 0 12 0;
#X connect 23 0 9 0;
#X connect 23 0 10 0;
#X connect 25 0 30 0;
#X connect 26 0 25 0;
#X connect 27 0 25 0;
#X connect 28 0 25 0;
#X connect 29 0 25 0;
#X restore 9 78 pd Menge;
#N canvas 220 44 588 546 Medienzentrale 0;
#N canvas 621 81 439 661 threshold_detection 0;
#X obj 19 68 bang~;
#X msg 19 137 64;
#X obj 19 115 t b b;
#X msg 59 146 0;
#X obj 19 159 until;
#X obj 19 182 f;
#X obj 76 183 + 1;
#X obj 19 259 abs;
#X obj 17 10 inlet~;
#X obj 19 208 t a a;
#X obj 19 291 >;
#X obj 160 70 inlet;
#X obj 219 157 dbtorms;
#X obj 19 313 sel 1;
#X obj 19 334 f;
#X obj 19 90 spigot 1;
#X obj 19 356 t a b;
#X obj 212 217 t b b;
#X msg 212 265 0;
#X obj 239 241 del 100;
#X msg 239 263 1;
#X obj 212 289 t a;
#X obj 69 596 outlet;
#X obj 19 234 tabread \$0.peak;
#X obj 17 32 tabsend~ \$0.peak;
#X obj 295 15 table \$0.peak 64;
#X obj 109 269 b;
#N canvas 243 221 185 167 sapmle(ms) 0;
#X obj 43 51 samplerate~;
#X msg 43 73 1000 \$1;
#X obj 43 95 /;
#X obj 43 28 inlet;
#X obj 43 118 outlet;
#X connect 0 0 1 0;
#X connect 1 0 2 0;
#X connect 2 0 4 0;
#X connect 3 0 0 0;
#X restore 164 384 pd sapmle(ms);
#X obj 164 357 loadbang;
#X obj 19 420 *;
#X obj 164 424 * 64;
#X obj 19 457 -;
#X obj 96 495 t b a;
#X obj 69 528 timer;
#X obj 69 556 +;
#X obj 160 103 route reset threshold debounce;
#X obj 160 143 b;
#X connect 0 0 15 0;
#X connect 1 0 4 0;
#X connect 2 0 1 0;
#X connect 2 1 3 0;
#X connect 3 0 5 1;
#X connect 4 0 5 0;
#X connect 5 0 6 0;
#X connect 5 0 9 0;
#X connect 6 0 5 1;
#X connect 7 0 10 0;
#X connect 8 0 24 0;
#X connect 9 0 23 0;
#X connect 9 1 14 1;
#X connect 10 0 13 0;
#X connect 11 0 35 0;
#X connect 12 0 10 1;
#X connect 13 0 14 0;
#X connect 14 0 16 0;
#X connect 15 0 2 0;
#X connect 16 0 29 0;
#X connect 16 1 17 0;
#X connect 16 1 26 0;
#X connect 17 0 18 0;
#X connect 17 1 19 0;
#X connect 18 0 21 0;
#X connect 19 0 20 0;
#X connect 20 0 21 0;
#X connect 21 0 15 1;
#X connect 23 0 7 0;
#X connect 26 0 4 1;
#X connect 27 0 29 1;
#X connect 27 0 30 0;
#X connect 28 0 27 0;
#X connect 29 0 31 0;
#X connect 30 0 31 1;
#X connect 31 0 32 0;
#X connect 32 0 33 1;
#X connect 32 1 34 1;
#X connect 33 0 34 0;
#X connect 34 0 22 0;
#X connect 35 0 36 0;
#X connect 35 1 12 0;
#X connect 35 2 19 1;
#X connect 36 0 33 0;
#X restore 47 244 pd threshold_detection;
#X msg 230 203 threshold \$1;
#X msg 176 202 reset;
#X msg 328 203 debounce \$1;
#X msg 145 289 set;
#X msg 47 290 add2 \$1 \, bang;
#X obj 230 156 r threshold;
#X floatatom 230 178 5 0 0 0 - - -;
#X obj 328 156 r debounce;
#X floatatom 328 178 5 0 0 0 - - -;
#X obj 179 38 bng 30 250 50 0 record empty record 33 4 0 16 -258113
-1 -1;
#X obj 145 170 r record;
#X msg 47 324;
#X obj 47 483 s eventlist;
#X obj 254 265 r geteventlist;
#X obj 254 287 del 0;
#N canvas 488 280 343 261 write_to_buffer 0;
#X obj 21 31 inlet~;
#X obj 21 227 outlet~;
#X msg 160 133 stop;
#X obj 133 23 r record;
#X msg 43 171 1;
#X obj 22 197 *~ 0;
#X obj 133 45 t b b;
#X msg 76 171 0;
#X obj 133 223 tabwrite~ Kollektivgedächtnis;
#X obj 160 67 del 100;
#X obj 199 38 r buffer_in_ms;
#X connect 0 0 5 0;
#X connect 0 0 8 0;
#X connect 2 0 8 0;
#X connect 3 0 6 0;
#X connect 4 0 5 1;
#X connect 5 0 1 0;
#X connect 6 0 4 0;
#X connect 6 0 8 0;
#X connect 6 1 9 0;
#X connect 7 0 5 1;
#X connect 9 0 2 0;
#X connect 9 0 7 0;
#X connect 10 0 9 1;
#X restore 46 112 pd write_to_buffer;
#X obj 47 267 - 20;
#X text 80 267 look-ahead delay;
#X obj 46 29 adc~ 1;
#X connect 0 0 17 0;
#X connect 1 0 0 1;
#X connect 2 0 0 1;
#X connect 3 0 0 1;
#X connect 4 0 12 0;
#X connect 5 0 12 0;
#X connect 6 0 7 0;
#X connect 7 0 1 0;
#X connect 8 0 9 0;
#X connect 9 0 3 0;
#X connect 11 0 2 0;
#X connect 11 0 4 0;
#X connect 12 0 13 0;
#X connect 14 0 15 0;
#X connect 15 0 12 0;
#X connect 16 0 0 0;
#X connect 17 0 5 0;
#X connect 19 0 16 0;
#X restore 8 38 pd Medienzentrale;
#N canvas 885 483 652 546 Spatialisierung2 0;
#X obj 22 9 oneshot.player.mono 10;
#X obj 286 133 gcanvas 200 200;
#X obj 286 333 pack f f;
#X obj 277 11 oneshot.player.mono 12;
#X obj 286 119 spatializer2 13;
#X obj 286 350 s 13.coords;
#X connect 1 0 2 0;
#X connect 1 1 2 1;
#X connect 2 0 5 0;
#X connect 3 0 4 0;
#X restore 9 396 pd Spatialisierung2;
#N canvas 220 44 339 521 Ausgang 0;
#X obj 45 80 master.mixer \$0 1;
#X restore 9 434 pd Ausgang;
#N canvas 220 44 678 546 klicken 0;
#N canvas 0 50 450 250 (subpatch) 0;
#X array click 30 float 1;
#A 0 0.3 0 0 0 0 0 0 0 0 0 0 0 0 0 0 0 0 0 0 0 0 0 0 0 0 0 0 0 0 0
;
#X coords 0 1 29 -1 60 60 1 0 0;
#X restore 419 43 graph;
#X obj 448 190 s click;
#X obj 448 144 loadbang;
#X obj 37 26 tgl 15 0 empty empty empty 17 7 0 10 -262144 -1 -1 0 1
;
#X obj 37 95 throw~ out1;
#X obj 37 73 tabplay~ click;
#X obj 37 51 metro 1234;
#X msg 448 166 const 0 \, 0 0.3;
#X obj 155 33 tgl 15 0 empty empty empty 17 7 0 10 -262144 -1 -1 0
1;
#X obj 155 80 tabplay~ click;
#X obj 155 58 metro 1234;
#X obj 155 102 throw~ out2;
#X floatatom 94 31 5 0 0 0 - - -;
#X floatatom 212 34 5 0 0 0 - - -;
#X obj 38 132 tgl 15 0 empty empty empty 17 7 0 10 -262144 -1 -1 0
1;
#X obj 38 179 tabplay~ click;
#X obj 38 157 metro 1234;
#X obj 156 139 tgl 15 0 empty empty empty 17 7 0 10 -262144 -1 -1 0
1;
#X obj 156 186 tabplay~ click;
#X obj 156 164 metro 1234;
#X floatatom 95 137 5 0 0 0 - - -;
#X floatatom 213 140 5 0 0 0 - - -;
#X obj 36 233 tgl 15 0 empty empty empty 17 7 0 10 -262144 -1 -1 0
1;
#X obj 36 280 tabplay~ click;
#X obj 36 258 metro 1234;
#X obj 154 240 tgl 15 0 empty empty empty 17 7 0 10 -262144 -1 -1 0
1;
#X obj 154 287 tabplay~ click;
#X obj 154 265 metro 1234;
#X floatatom 93 238 5 0 0 0 - - -;
#X floatatom 211 241 5 0 0 0 - - -;
#X obj 37 339 tgl 15 0 empty empty empty 17 7 0 10 -262144 -1 -1 0
1;
#X obj 37 386 tabplay~ click;
#X obj 37 364 metro 1234;
#X obj 155 346 tgl 15 0 empty empty empty 17 7 0 10 -262144 -1 -1 0
1;
#X obj 155 393 tabplay~ click;
#X obj 155 371 metro 1234;
#X floatatom 94 344 5 0 0 0 - - -;
#X floatatom 212 347 5 0 0 0 - - -;
#X obj 38 201 throw~ out3;
#X obj 156 208 throw~ out4;
#X obj 36 302 throw~ out5;
#X obj 154 309 throw~ out6;
#X obj 37 408 throw~ out7;
#X obj 155 415 throw~ out8;
#X floatatom 344 237 5 0 0 0 - - -;
#X floatatom 359 324 5 0 0 0 - - -;
#X obj 339 85 tgl 15 0 empty empty empty 17 7 0 10 -262144 -1 -1 0
1;
#X connect 2 0 7 0;
#X connect 3 0 6 0;
#X connect 5 0 4 0;
#X connect 6 0 5 0;
#X connect 7 0 1 0;
#X connect 8 0 10 0;
#X connect 9 0 11 0;
#X connect 10 0 9 0;
#X connect 12 0 6 1;
#X connect 13 0 10 1;
#X connect 14 0 16 0;
#X connect 15 0 38 0;
#X connect 16 0 15 0;
#X connect 17 0 19 0;
#X connect 18 0 39 0;
#X connect 19 0 18 0;
#X connect 20 0 16 1;
#X connect 21 0 19 1;
#X connect 22 0 24 0;
#X connect 23 0 40 0;
#X connect 24 0 23 0;
#X connect 25 0 27 0;
#X connect 26 0 41 0;
#X connect 27 0 26 0;
#X connect 28 0 24 1;
#X connect 29 0 27 1;
#X connect 30 0 32 0;
#X connect 31 0 42 0;
#X connect 32 0 31 0;
#X connect 33 0 35 0;
#X connect 34 0 43 0;
#X connect 35 0 34 0;
#X connect 36 0 32 1;
#X connect 37 0 35 1;
#X connect 44 0 29 0;
#X connect 44 0 21 0;
#X connect 44 0 13 0;
#X connect 44 0 37 0;
#X connect 45 0 12 0;
#X connect 45 0 20 0;
#X connect 45 0 28 0;
#X connect 45 0 36 0;
#X connect 46 0 8 0;
#X connect 46 0 3 0;
#X connect 46 0 14 0;
#X connect 46 0 17 0;
#X connect 46 0 22 0;
#X connect 46 0 25 0;
#X connect 46 0 30 0;
#X connect 46 0 33 0;
#X restore 9 233 pd klicken;
#N canvas 220 44 586 546 glitchtrack 0;
#X obj 31 22 glitchtrack . . . . . . . . . .;
#X obj 189 132 2box 0 1;
#X obj 57 378 2box 0 2;
#X obj 215 83 2box 0 3;
#X obj 82 328 2box 0 4;
#X obj 162 180 2box 0 5;
#X obj 31 429 2box 0 6;
#X obj 109 276 2box 0 7;
#X obj 136 229 2box 0 8;
#X connect 0 0 6 0;
#X connect 0 1 2 0;
#X connect 0 2 4 0;
#X connect 0 3 7 0;
#X connect 0 4 8 0;
#X connect 0 5 5 0;
#X connect 0 6 1 0;
#X connect 0 7 3 0;
#X restore 9 209 pd glitchtrack;
#N canvas 220 44 482 546 rausch_wanderung 0;
#X msg 137 145 pos \$1;
#X obj 47 105 noise~;
#X obj 47 127 *~ 0.1;
#X obj 46 182 spatializer;
#X obj 137 107 rampe 0 8 8000;
#X obj 298 108 loadbang;
#X msg 298 130 vol 0;
#X connect 0 0 3 1;
#X connect 1 0 2 0;
#X connect 2 0 3 0;
#X connect 4 0 0 0;
#X connect 5 0 6 0;
#X connect 6 0 3 1;
#X restore 9 141 pd rausch_wanderung;
#N canvas 220 44 482 546 rauschen 0;
#X obj 47 105 noise~;
#X obj 47 127 *~ 0.1;
#X obj 48 165 channel.router;
#X connect 0 0 1 0;
#X connect 1 0 2 0;
#X restore 9 118 pd rauschen;
#N canvas 220 44 1076 546 woerter_mantra 0;
#X obj 22 10 r wortstrg;
#X obj 22 32 oneshot.player.mono;
#X msg 900 130 start;
#X msg 940 129 stop;
#X obj 994 99 tgl 15 0 empty empty empty 17 7 0 10 -262144 -1 -1 1
1;
#X msg 994 125 loop \$1;
#X obj 900 166 s wortstrg;
#X obj 900 89 metro 3000;
#X obj 900 68 tgl 15 0 empty empty empty 17 7 0 10 -262144 -1 -1 0
1;
#X obj 328 10 r wortstrg;
#X obj 328 31 oneshot.player.mono;
#X obj 628 10 r wortstrg;
#X obj 628 31 oneshot.player.mono;
#X obj 22 371 r wortstrg;
#X obj 22 392 oneshot.player.mono;
#X obj 328 370 r wortstrg;
#X obj 328 391 oneshot.player.mono;
#X obj 628 370 r wortstrg;
#X obj 628 391 oneshot.player.mono;
#X obj 22 191 r wortstrg;
#X obj 22 212 oneshot.player.mono;
#X obj 628 190 r wortstrg;
#X obj 628 211 oneshot.player.mono;
#X obj 283 192 loadbang;
#X obj 90 371 r mantra1;
#X obj 90 192 r mantra2;
#X obj 90 10 r mantra3;
#X obj 396 10 r mantra4;
#X obj 694 10 r mantra5;
#X obj 697 190 r mantra6;
#X obj 695 370 r mantra7;
#X obj 395 370 r mantra8;
#X msg 283 213 \; mantra1 load ../klangteile/x_abitrage.wav \; mantra2
load ../klangteile/x_fuckastranger.wav \; mantra3 load ../klangteile/x_komfortzone.wav
\; mantra4 load ../klangteile/x_portfolio.wav \; mantra5 load ../klangteile/x_risikokultur.wav
\; mantra6 load ../klangteile/x_komplexitaetsrisiko_2.wav \; mantra7
load ../klangteile/x_dealer.wav \; mantra8 load ../klangteile/x_shanghaitower.wav
\;;
#X obj 22 480 2box 0.14 1;
#X obj 628 479 2box 0.15 7;
#X obj 628 299 2box 0.23 6;
#X obj 21 120 2box 0.12 3;
#X obj 328 119 2box 0.21 4;
#X obj 328 480 2box 0.18 8;
#X obj 628 119 2box 0.16 5;
#X obj 22 300 2box 0.2 2;
#X connect 0 0 1 0;
#X connect 1 0 36 0;
#X connect 2 0 6 0;
#X connect 3 0 6 0;
#X connect 4 0 5 0;
#X connect 5 0 6 0;
#X connect 7 0 2 0;
#X connect 8 0 7 0;
#X connect 9 0 10 0;
#X connect 10 0 37 0;
#X connect 11 0 12 0;
#X connect 12 0 39 0;
#X connect 13 0 14 0;
#X connect 14 0 33 0;
#X connect 15 0 16 0;
#X connect 16 0 38 0;
#X connect 17 0 18 0;
#X connect 18 0 34 0;
#X connect 19 0 20 0;
#X connect 20 0 40 0;
#X connect 21 0 22 0;
#X connect 22 0 35 0;
#X connect 23 0 32 0;
#X connect 24 0 14 0;
#X connect 25 0 20 0;
#X connect 26 0 1 0;
#X connect 27 0 10 0;
#X connect 28 0 12 0;
#X connect 29 0 22 0;
#X connect 30 0 18 0;
#X connect 31 0 16 0;
#X restore 9 186 pd woerter_mantra;
#N canvas 220 44 614 546 woerter_sprenkel 0;
#X obj 12 14 wort abitrage;
#X obj 13 51 2box 0.5 1;
#X obj 143 51 2box 0.5 1;
#X obj 273 51 2box 0.5 1;
#X obj 403 51 2box 0.5 1;
#X obj 13 171 2box 0.5 1;
#X obj 153 171 2box 0.5 1;
#X obj 323 171 2box 0.5 1;
#X obj 13 292 2box 0.5 1;
#X obj 13 402 2box 0.5 1;
#X obj 143 402 2box 0.5 1;
#X obj 273 402 2box 0.5 1;
#X obj 423 402 2box 0.5 1;
#X obj 183 292 2box 0.5 1;
#X obj 333 292 2box 0.5 1;
#X obj 463 292 2box 0.5 1;
#X obj 142 14 wort balkon;
#X obj 272 14 wort dealer;
#X obj 402 14 wort fuckastranger;
#X obj 12 134 wort gwuenn_wert_isch;
#X obj 152 134 wort hochfrequenzhandel_2;
#X obj 322 134 wort komfortzone;
#X obj 12 255 wort komplexitaetsrisiko_2;
#X obj 182 255 wort onshore_standbein;
#X obj 332 255 wort portfolio;
#X obj 463 255 wort preisjonglage;
#X obj 12 365 wort risikokultur;
#X obj 142 365 wort shanghaitower;
#X obj 272 365 wort wasspoeterchunnt;
#X obj 422 365 wort wegabtragiert;
#X connect 0 0 1 0;
#X connect 16 0 2 0;
#X connect 17 0 3 0;
#X connect 18 0 4 0;
#X connect 19 0 5 0;
#X connect 20 0 6 0;
#X connect 21 0 7 0;
#X connect 22 0 8 0;
#X connect 23 0 13 0;
#X connect 24 0 14 0;
#X connect 25 0 15 0;
#X connect 26 0 9 0;
#X connect 27 0 10 0;
#X connect 28 0 11 0;
#X connect 29 0 12 0;
#X restore 9 163 pd woerter_sprenkel;
#N canvas 220 44 505 546 pianokitsch 0;
#X obj 21 203 schmierer;
#X obj 21 95 oneshot.player.mono;
#X obj 21 8 loadbang;
#X msg 21 31 load ../recherche/rideaux_lunaires.wav \, starttime 66.998
\, stoptime 85.148 \, loop 1 \, wait 0;
#X connect 1 0 0 0;
#X connect 2 0 3 0;
#X connect 3 0 1 0;
#X restore 9 257 pd pianokitsch;
#N canvas 220 44 506 546 sinusvonhinten 0;
#X obj 28 47 cresc;
#X msg 160 57 mix 1 1 1 1 1 1 1 1;
#X obj 160 28 loadbang;
#X obj 28 111 channel.router;
#X connect 0 0 3 0;
#X connect 1 0 3 1;
#X connect 2 0 1 0;
#X restore 9 282 pd sinusvonhinten;
#N canvas 220 44 600 520 eishockey_stadion 0;
#X obj 22 368 channel.router 26;
#X obj 264 378 channel.router 27;
#X obj 60 251 loadbang;
#X obj 23 18 loadbang;
#X msg 23 40 load ../recherche/eishockeymusik_hall.wav;
#X obj 23 79 oneshot.player.stereo;
#X msg 382 321 master \$1;
#X msg 65 302 mix 0 1 0 1 0 1 0 1;
#X msg 59 338 mix 1 0 1 0 1 0 1 0;
#X msg 382 67 0.07;
#X obj 382 108 vsl 15 200 0 1 0 0 empty empty empty 0 -9 0 10 -262144
-1 -1 1393 1;
#X obj 382 45 loadbang;
#X connect 2 0 8 0;
#X connect 2 0 7 0;
#X connect 3 0 4 0;
#X connect 4 0 5 0;
#X connect 5 0 0 0;
#X connect 5 1 1 0;
#X connect 6 0 0 1;
#X connect 6 0 1 1;
#X connect 7 0 1 1;
#X connect 8 0 0 1;
#X connect 9 0 10 0;
#X connect 10 0 6 0;
#X connect 11 0 9 0;
#X restore 9 306 pd eishockey_stadion;
#N canvas 220 44 653 546 satz_player 0;
#X obj 22 32 oneshot.player.mono;
#X obj 300 31 oneshot.player.mono;
#X obj 25 205 oneshot.player.mono;
#X obj 25 293 2box 0.5 2;
#X obj 90 10 r satz1;
#X obj 366 10 r satz2;
#X obj 300 202 oneshot.player.mono;
#X obj 300 290 2box 0.5 2;
#X obj 90 182 r satz3;
#X obj 368 182 r satz4;
#X obj 300 119 2box 1 5;
#X obj 22 120 2box 0.8 3;
#X obj 24 378 oneshot.player.mono;
#X obj 24 468 2box 0.5 2;
#X obj 299 377 oneshot.player.mono;
#X obj 299 467 2box 0.5 2;
#X obj 97 353 r satz5;
#X obj 331 354 r satz6;
#N canvas 621 211 416 220 preset 0;
#X obj 0 -3599 loadbang;
#X msg 0 -3574 \; satz1 load ../klangteile/x_balkon.wav \; satz2 load
../klangteile/x_fuckastranger_2.wav \; satz3 load ../klangteile/liebe_1962_ichwollte.wav
\; satz4 load ../klangteile/liebe_1962_sehenwirunsmorgen.wav \; satz5
load ../klangteile/x_kleidedichraffiniert.wav \; satz6 load ../klangteile/x_seialles.wav
\;;
#X connect 0 0 1 0;
#X restore 480 510 pd preset;
#X connect 0 0 11 0;
#X connect 1 0 10 0;
#X connect 2 0 3 0;
#X connect 4 0 0 0;
#X connect 5 0 1 0;
#X connect 6 0 7 0;
#X connect 8 0 2 0;
#X connect 9 0 6 0;
#X connect 12 0 13 0;
#X connect 14 0 15 0;
#X connect 16 0 12 0;
#X connect 17 0 14 0;
#X restore 9 331 pd satz_player;
#N canvas 219 44 762 546 stderr 0;
#X msg 64 36 load ../recherche/stderr.wav;
#X obj 64 12 loadbang;
#X obj 64 62 oneshot.player.stereo;
#X obj 73 167 delwrite~ stderr.l 100000;
#X obj 313 172 delwrite~ stderr.r 100000;
#X obj 64 268 2box 1 2;
#X obj 66 340 delread~ stderr.l 180;
#X obj 357 334 delread~ stderr.r 360;
#X obj 348 272 2box 1 5;
#X obj 358 445 2box 0.7 7;
#X obj 66 439 2box 0.7 1;
#X obj 64 200 spectfilt;
#X obj 348 205 spectfilt;
#X obj 66 372 spectfilt;
#X obj 357 370 spectfilt;
#X connect 0 0 2 0;
#X connect 1 0 0 0;
#X connect 2 0 3 0;
#X connect 2 0 11 0;
#X connect 2 1 4 0;
#X connect 2 1 12 0;
#X connect 6 0 13 0;
#X connect 7 0 14 0;
#X connect 11 0 5 0;
#X connect 12 0 8 0;
#X connect 13 0 10 0;
#X connect 14 0 9 0;
#X restore 9 356 pd stderr;
