#N canvas 0 72 220 518 10;
#X declare -path . -path include;
#N canvas 220 44 453 328 INIT 0;
#X obj 16 46 loadbang;
#X obj 15 12 declare -path . -path include;
#X msg 16 67 \; pd dsp 1 \; groupmin 0 \; groupmax 7 \; rolemin 0 \;
rolemax 7 \; individualmin 0 \; individualmax 63 \; pitch 1 \; gemeinsam
1000 \; individuell 80 \; click resize 30 \;;
#X connect 0 0 2 0;
#X restore 8 14 pd INIT;
#N canvas 220 44 583 546 Menge 1;
#X obj 168 17 hsl 128 20 10 10000 1 0 gemeinsam gemeinsam gemeinsam
20 10 0 14 -204786 -1 -1 8467 1;
#X obj 305 17 hsl 128 20 10 10000 1 0 individuell individuell individuell
20 10 0 14 -204786 -1 -1 3823 1;
#X obj 60 18 tgl 20 0 mitmachen \$0.bli mitmachen 25 10 0 14 -204786
-1 -1 0 1;
#X obj 175 63 r gemeinsam;
#X floatatom 175 85 5 0 0 0 - - -;
#X floatatom 311 90 5 0 0 0 - - -;
#X obj 313 67 r individuell;
#X obj 206 289 Gruppe 0;
#X obj 63 122 nbx 5 14 -1e+37 1e+37 0 0 pitch pitch pitch 0 -8 0 10
-262144 -1 -1 1 256;
#X obj 160 130 hradio 15 1 0 8 groupmin groupmin groupmin 0 -8 0 10
-262144 -1 -1 0;
#X obj 160 161 hradio 15 1 0 8 groupmax groupmax groupmax 0 -8 0 10
-262144 -1 -1 7;
#X obj 363 129 hradio 15 1 0 8 rolemin rolemin rolemin 0 -8 0 10 -262144
-1 -1 0;
#X obj 363 160 hradio 15 1 0 8 rolemax rolemax rolemax 0 -8 0 10 -262144
-1 -1 7;
#X obj 265 289 Gruppe 1;
#X obj 321 289 Gruppe 2;
#X obj 377 288 Gruppe 3;
#X obj 206 312 Gruppe 4;
#X obj 265 312 Gruppe 5;
#X obj 321 312 Gruppe 6;
#X obj 377 311 Gruppe 7;
#X obj 135 228 nbx 5 14 0 63 0 0 individualmin individualmin individualmin
0 -8 0 10 -262144 -1 -1 0 256;
#X obj 223 230 nbx 5 14 0 63 0 0 individualmax individualmax individualmax
0 -8 0 10 -262144 -1 -1 63 256;
#X floatatom 447 88 5 0 0 0 - - -;
#X floatatom 304 111 5 0 0 0 - - -;
#X connect 3 0 4 0;
#X connect 6 0 5 0;
#X connect 22 0 11 0;
#X connect 22 0 12 0;
#X connect 23 0 9 0;
#X connect 23 0 10 0;
#X restore 9 79 pd Menge;
#X obj 11 334 master.mixer \$0 1;
#N canvas 220 44 586 546 click_forms 1;
#N canvas 0 50 450 250 (subpatch) 0;
#X array click 30 float 1;
#A 0 0.3 0 0 0 0 0 0 0 0 0 0 0 0 0 0 0 0 0 0 0 0 0 0 0 0 0 0 0 0 0
;
#X coords 0 1 29 -1 120 120 1 0 0;
#X restore 22 31 graph;
#X obj 326 126 s click;
#X obj 326 80 loadbang;
#X msg 326 102 const 0 \, 0 0.3;
#X obj 506 108 s click;
#X msg 506 85 29 0;
#X obj 506 64 metro 30;
#X obj 506 42 loadbang;
#X text 505 20 avoid DC;
#X connect 2 0 3 0;
#X connect 3 0 1 0;
#X connect 5 0 4 0;
#X connect 6 0 5 0;
#X connect 7 0 6 0;
#X restore 9 114 pd click_forms;
