#N canvas 0 72 220 518 10;
#X declare -path . -path include;
#N canvas 220 44 453 328 INIT 0;
#X obj 16 46 loadbang;
#X obj 15 12 declare -path . -path include;
#X msg 16 67 \; pd dsp 1 \; groupmin 0 \; groupmax 7 \; rolemin 0 \;
rolemax 7 \; individualmin 0 \; individualmax 63 \; pitch 1 \; gemeinsam
1000 \; individuell 80 \; click resize 30 \;;
#X connect 0 0 2 0;
#X restore 8 14 pd INIT;
#N canvas 220 44 583 546 Menge 1;
#X obj 168 17 hsl 128 20 10 10000 1 0 gemeinsam gemeinsam gemeinsam
20 10 0 14 -204786 -1 -1 7600 1;
#X obj 305 17 hsl 128 20 10 10000 1 0 individuell individuell individuell
20 10 0 14 -204786 -1 -1 5600 1;
#X obj 60 18 tgl 20 0 mitmachen \$0.bli mitmachen 25 10 0 14 -204786
-1 -1 1 1;
#X obj 175 63 r gemeinsam;
#X floatatom 175 85 5 0 0 0 - - -;
#X floatatom 311 90 5 0 0 0 - - -;
#X obj 313 67 r individuell;
#X obj 206 289 Gruppe 0;
#X obj 63 122 nbx 5 14 -1e+37 1e+37 0 0 pitch pitch pitch 0 -8 0 10
-262144 -1 -1 1 256;
#X obj 160 130 hradio 15 1 0 8 groupmin groupmin groupmin 0 -8 0 10
-262144 -1 -1 0;
#X obj 160 161 hradio 15 1 0 8 groupmax groupmax groupmax 0 -8 0 10
-262144 -1 -1 7;
#X obj 363 129 hradio 15 1 0 8 rolemin rolemin rolemin 0 -8 0 10 -262144
-1 -1 0;
#X obj 363 160 hradio 15 1 0 8 rolemax rolemax rolemax 0 -8 0 10 -262144
-1 -1 7;
#X obj 265 289 Gruppe 1;
#X obj 321 289 Gruppe 2;
#X obj 377 288 Gruppe 3;
#X obj 206 312 Gruppe 4;
#X obj 265 312 Gruppe 5;
#X obj 321 312 Gruppe 6;
#X obj 377 311 Gruppe 7;
#X obj 135 228 nbx 5 14 0 63 0 0 individualmin individualmin individualmin
0 -8 0 10 -262144 -1 -1 0 256;
#X obj 223 230 nbx 5 14 0 63 0 0 individualmax individualmax individualmax
0 -8 0 10 -262144 -1 -1 63 256;
#X floatatom 447 88 5 0 0 0 - - -;
#X floatatom 304 111 5 0 0 0 - - -;
#X connect 3 0 4 0;
#X connect 6 0 5 0;
#X connect 22 0 11 0;
#X connect 22 0 12 0;
#X connect 23 0 9 0;
#X connect 23 0 10 0;
#X restore 9 79 pd Menge;
#X obj 11 334 master.mixer \$0 1;
#N canvas 220 44 586 546 click_forms 0;
#N canvas 0 50 450 250 (subpatch) 0;
#X array click 30 float 1;
#A 0 2.5785e-06 0.0313606 0.0623759 0.0927061 0.122023 0.15 0.176336
0.200739 0.222942 0.242704 0.259805 0.274063 0.285313 0.293444 0.298351
0.3 0.298351 0.293443 0.285312 0.274061 0.259803 0.242702 0.22294 0.200737
0.176334 0.149998 0.12202 0.0927037 0.0623734 0.0313581;
#X coords 0 1 29 -1 240 240 1 0 0;
#X restore 22 31 graph;
#X obj 325 123 s click;
#X obj 353 72 loadbang;
#X obj 345 300 rpole~;
#X obj 345 277 tabplay~ click;
#X obj 326 336 tabwrite~ click;
#X obj 326 253 t b b a;
#X obj 329 184 hsl 128 15 0 0.83 0 0 empty empty empty -2 -8 0 10 -204786
-1 -1 0 0;
#X msg 325 99 const 0 \, 0 0.3;
#X obj 385 252 s click;
#X msg 385 228 const 0 \, 0 0.3;
#X obj 326 204 t a b;
#X obj 325 48 bng 15 250 50 0 empty empty empty 17 7 0 10 -204786 -1
-1;
#X text 358 49 dirac;
#X text 323 166 decay;
#X obj 355 410 noise~;
#X obj 328 459 tabwrite~ click;
#X obj 328 383 bng 15 250 50 0 empty empty empty 17 7 0 10 -204786
-1 -1;
#X obj 355 432 *~ 0.3;
#X text 350 383 random;
#X obj 27 289 hradio 15 1 0 2 empty empty empty 0 -8 0 10 -204786 -1
-1 1;
#X text 68 285 arc;
#X obj 174 508 tabwrite~ click;
#X obj 201 485 *~ 0.3;
#X obj 174 289 hradio 15 1 0 5 empty empty empty 0 -8 0 10 -204786
-1 -1 2;
#X obj 174 353 t b a;
#X obj 174 376 samplerate~;
#X obj 174 331 + 4;
#X obj 174 399 /;
#X obj 201 462 osc~;
#X obj 174 421 t b a b;
#X msg 213 441 0.75;
#X floatatom 258 385 5 0 0 0 - - -;
#X obj 174 310 * 2;
#X obj 27 312 sel 0 1;
#X msg 27 350 30;
#X msg 56 352 60;
#N canvas 548 100 278 297 avoid_dc 0;
#X msg 25 95 30;
#X obj 25 155 until;
#X obj 25 181 f;
#X obj 64 180 + 1;
#X obj 25 129 t a b;
#X msg 68 153 0;
#X obj 25 228 tabread click;
#X obj 25 251 tabwrite click2;
#X obj 25 203 t a a;
#X obj 25 50 loadbang;
#X obj 25 72 metro 30;
#X obj 21 14 table click2;
#X obj 135 23 r click;
#X obj 135 45 route resize;
#X obj 135 67 + 1;
#X msg 135 89 resize \$1;
#X obj 135 111 s click2;
#X connect 0 0 4 0;
#X connect 1 0 2 0;
#X connect 2 0 3 0;
#X connect 2 0 8 0;
#X connect 3 0 2 1;
#X connect 4 0 1 0;
#X connect 4 1 5 0;
#X connect 5 0 2 1;
#X connect 6 0 7 0;
#X connect 8 0 6 0;
#X connect 8 1 7 1;
#X connect 9 0 10 0;
#X connect 10 0 0 0;
#X connect 12 0 13 0;
#X connect 13 0 14 0;
#X connect 14 0 15 0;
#X connect 15 0 16 0;
#X restore 492 23 pd avoid_dc;
#X connect 2 0 8 0;
#X connect 3 0 5 0;
#X connect 4 0 3 0;
#X connect 6 0 5 0;
#X connect 6 1 4 0;
#X connect 6 2 3 1;
#X connect 7 0 11 0;
#X connect 8 0 1 0;
#X connect 10 0 9 0;
#X connect 11 0 6 0;
#X connect 11 1 10 0;
#X connect 12 0 8 0;
#X connect 15 0 18 0;
#X connect 17 0 16 0;
#X connect 18 0 16 0;
#X connect 20 0 34 0;
#X connect 23 0 22 0;
#X connect 24 0 33 0;
#X connect 25 0 26 0;
#X connect 25 1 28 1;
#X connect 26 0 28 0;
#X connect 27 0 25 0;
#X connect 28 0 30 0;
#X connect 29 0 23 0;
#X connect 30 0 22 0;
#X connect 30 1 29 0;
#X connect 30 1 32 0;
#X connect 30 2 31 0;
#X connect 31 0 29 1;
#X connect 33 0 27 0;
#X connect 34 0 35 0;
#X connect 34 1 36 0;
#X connect 35 0 25 0;
#X connect 36 0 25 0;
#X restore 9 114 pd click_forms;
