#N canvas 0 44 220 518 10;
#X declare -path . -path include;
#N canvas 220 44 453 328 INIT 0;
#X obj 16 46 loadbang;
#X obj 15 12 declare -path . -path include;
#X msg 16 72 \; pd dsp 1 \; groupmin 0 \; groupmax 7 \; rolemin 0 \;
rolemax 7 \; individualmin 0 \; individualmax 63 \; pitch 1 \; gemeinsam
1000 \; individuell 80 \; click resize 30 \;;
#X connect 0 0 2 0;
#X restore 8 14 pd INIT;
#N canvas 221 42 631 546 Menge 0;
#X obj 168 17 hsl 128 20 10 10000 1 0 gemeinsam gemeinsam intervall
20 10 0 11 -204786 -1 -1 10700 1;
#X obj 304 17 hsl 128 20 0 1 0 1 individuell individuell random_range
20 10 0 11 -204786 -1 -1 12700 1;
#X obj 60 18 tgl 20 0 mitmachen \$0.bli mitmachen 25 10 0 14 -204786
-1 -1 0 1;
#X obj 191 106 r gemeinsam;
#X floatatom 436 42 5 0 0 0 - verteilung -;
#X obj 206 379 Gruppe 0;
#X obj 63 212 nbx 5 14 -1e+37 1e+37 0 0 pitch pitch pitch 0 -8 0 10
-262144 -1 -1 1 256;
#X obj 160 220 hradio 15 1 0 8 groupmin groupmin groupmin 0 -8 0 10
-262144 -1 -1 0;
#X obj 160 251 hradio 15 1 0 8 groupmax groupmax groupmax 0 -8 0 10
-262144 -1 -1 3;
#X obj 363 219 hradio 15 1 0 8 rolemin rolemin rolemin 0 -8 0 10 -262144
-1 -1 0;
#X obj 363 250 hradio 15 1 0 8 rolemax rolemax rolemax 0 -8 0 10 -262144
-1 -1 7;
#X obj 135 318 nbx 5 14 0 63 0 0 individualmin individualmin individualmin
0 -8 0 10 -262144 -1 -1 0 256;
#X obj 223 320 nbx 5 14 0 63 0 0 individualmax individualmax individualmax
0 -8 0 10 -262144 -1 -1 63 256;
#X floatatom 447 178 5 0 0 0 - - -;
#X floatatom 238 154 5 0 0 0 - - -;
#X obj 134 87 r mitmachen;
#X obj 134 129 metro 1000;
#X obj 134 151 s takt;
#X obj 440 17 hsl 129 20 0.25 4 1 0 verteilung verteilung random_verteilung
10 10 0 11 -204786 -1 -1 6200 1;
#X floatatom 300 44 5 0 0 0 - individuell -;
#X floatatom 166 46 10 0 0 0 - gemeinsam -;
#X obj 265 379 Gruppe 1;
#X obj 321 379 Gruppe 2;
#X obj 377 378 Gruppe 3;
#X obj 206 402 Gruppe 4;
#X obj 265 402 Gruppe 5;
#X obj 321 402 Gruppe 6;
#X obj 377 401 Gruppe 7;
#X obj 20 368 tgl 20 0 empty empty empty 17 7 0 10 -4034 -1 -1 1 1
;
#X text 44 370 <- connect;
#X obj 20 341 loadbang;
#N canvas 650 140 646 487 faderbox 0;
#X obj 34 19 ctlin 71 1;
#X floatatom 34 44 5 0 0 0 - - -;
#X floatatom 205 58 5 0 0 0 - - -;
#X obj 205 20 ctlin 74 1;
#X floatatom 349 60 5 0 0 0 - - -;
#X obj 349 22 ctlin 84 1;
#X obj 34 84 / 127;
#X obj 205 90 / 127;
#X obj 349 89 / 127;
#X obj 34 118 rh_scalelog 10 10000;
#X obj 34 161 s gemeinsam;
#X obj 205 161 s individuell;
#X obj 349 158 s verteilung;
#X obj 349 122 rh_scalelog 0.25 4;
#X floatatom 207 252 5 0 0 0 - - -;
#X obj 207 284 / 127;
#X obj 207 369 s individualmax;
#X obj 207 227 ctlin 93 1;
#X floatatom 40 246 5 0 0 0 - - -;
#X obj 40 278 / 127;
#X obj 40 316 * 63;
#X obj 40 221 ctlin 91 1;
#X obj 40 363 s individualmin;
#X obj 385 364 route 0 1 2 3;
#N canvas 0 44 450 300 arduino.setup 0;
#X obj 27 155 pduino/arduino;
#X obj 27 50 sel 1 0;
#X msg 46 78 close;
#X obj 27 178 route analog;
#X obj 27 21 inlet;
#X obj 27 204 outlet;
#X msg 27 106 open 4 \, version;
#X obj 175 51 route version;
#X msg 175 73 0 \, 1 \, 2 \, 3;
#X obj 175 95 + 14;
#X msg 175 117 pinMode \$1 analog;
#X connect 0 0 3 0;
#X connect 0 1 7 0;
#X connect 1 0 6 0;
#X connect 1 1 2 0;
#X connect 2 0 0 0;
#X connect 3 0 5 0;
#X connect 4 0 1 0;
#X connect 6 0 0 0;
#X connect 7 0 8 0;
#X connect 8 0 9 0;
#X connect 9 0 10 0;
#X connect 10 0 0 0;
#X restore 385 292 pd arduino.setup;
#X obj 207 322 * 63;
#X obj 207 344 int;
#X obj 40 338 int;
#X obj 385 267 inlet;
#X connect 0 0 1 0;
#X connect 1 0 6 0;
#X connect 2 0 7 0;
#X connect 3 0 2 0;
#X connect 4 0 8 0;
#X connect 5 0 4 0;
#X connect 6 0 9 0;
#X connect 7 0 11 0;
#X connect 8 0 13 0;
#X connect 9 0 10 0;
#X connect 13 0 12 0;
#X connect 14 0 15 0;
#X connect 15 0 25 0;
#X connect 17 0 14 0;
#X connect 18 0 19 0;
#X connect 19 0 20 0;
#X connect 20 0 27 0;
#X connect 21 0 18 0;
#X connect 23 0 9 0;
#X connect 23 1 11 0;
#X connect 23 2 20 0;
#X connect 23 3 25 0;
#X connect 24 0 23 0;
#X connect 25 0 26 0;
#X connect 26 0 16 0;
#X connect 27 0 22 0;
#X connect 28 0 24 0;
#X restore 20 401 pd faderbox;
#X connect 3 0 16 1;
#X connect 13 0 9 0;
#X connect 13 0 10 0;
#X connect 14 0 7 0;
#X connect 14 0 8 0;
#X connect 15 0 16 0;
#X connect 16 0 17 0;
#X connect 28 0 31 0;
#X connect 30 0 28 0;
#X restore 9 79 pd Menge;
#X obj 11 334 master.mixer \$0 1;
#N canvas 220 44 741 546 click_forms 0;
#N canvas 0 50 450 250 (subpatch) 0;
#X array click 30 float 1;
#A 0 0.3 0 0 0 0 0 0 0 0 0 0 0 0 0 0 0 0 0 0 0 0 0 0 0 0 0 0 0 0 0
;
#X coords 0 1 29 -1 240 240 1 0 0;
#X restore 22 31 graph;
#X obj 325 123 s click;
#X obj 353 72 loadbang;
#X obj 345 300 rpole~;
#X obj 345 277 tabplay~ click;
#X obj 326 336 tabwrite~ click;
#X obj 326 253 t b b a;
#X obj 329 184 hsl 128 15 0 0.83 0 0 empty empty empty -2 -8 0 10 -204786
-1 -1 11000 0;
#X msg 325 99 const 0 \, 0 0.3;
#X obj 385 252 s click;
#X msg 385 228 const 0 \, 0 0.3;
#X obj 326 204 t a b;
#X obj 325 48 bng 15 250 50 0 empty empty empty 17 7 0 10 -204786 -1
-1;
#X text 358 49 dirac;
#X text 323 166 decay;
#X obj 355 410 noise~;
#X obj 328 459 tabwrite~ click;
#X obj 328 383 bng 15 250 50 0 empty empty empty 17 7 0 10 -204786
-1 -1;
#X obj 355 432 *~ 0.3;
#X text 350 383 random;
#X obj 27 289 hradio 15 1 0 2 empty empty empty 0 -8 0 10 -204786 -1
-1 0;
#X text 68 285 arc;
#X obj 174 508 tabwrite~ click;
#X obj 201 485 *~ 0.3;
#X obj 174 289 hradio 15 1 0 5 empty empty empty 0 -8 0 10 -204786
-1 -1 4;
#X obj 174 353 t b a;
#X obj 174 376 samplerate~;
#X obj 174 331 + 4;
#X obj 174 399 /;
#X obj 201 462 osc~;
#X obj 174 421 t b a b;
#X msg 213 441 0.75;
#X obj 174 310 * 2;
#X obj 27 312 sel 0 1;
#X msg 27 350 30;
#X msg 56 352 60;
#X text 258 289 sine;
#X obj 526 61 tgl 18 0 0.click.copy \$0.bli 0 5 9 0 11 -262130 -1 -1
1 1;
#X obj 544 61 tgl 18 0 1.click.copy \$0.bli 1 5 9 0 11 -262130 -1 -1
1 1;
#X obj 562 61 tgl 18 0 2.click.copy \$0.bli 2 5 9 0 11 -262130 -1 -1
1 1;
#X obj 580 61 tgl 18 0 3.click.copy \$0.bli 3 5 9 0 11 -262130 -1 -1
1 1;
#X obj 598 61 tgl 18 0 4.click.copy \$0.bli 4 5 9 0 11 -262130 -1 -1
1 1;
#X obj 616 61 tgl 18 0 5.click.copy \$0.bli 5 5 9 0 11 -262130 -1 -1
1 1;
#X obj 634 61 tgl 18 0 6.click.copy \$0.bli 6 5 9 0 11 -262130 -1 -1
1 1;
#X obj 652 61 tgl 18 0 7.click.copy \$0.bli 7 5 9 0 11 -262130 -1 -1
1 1;
#X obj 526 27 tgl 18 0 empty empty empty 17 7 0 10 -262144 -1 -1 1
1;
#X obj 527 99 hradio 18 1 0 8 click.restore click.restore empty 0 -8
0 10 -261682 -1 -1 0;
#N canvas 646 594 259 202 get.from.group 0;
#X obj 32 16 r click.restore;
#X obj 32 152 tabwrite~ click;
#X obj 59 93 tabplay~;
#X obj 32 38 t b a;
#X msg 59 66 set \$1.click \, bang;
#X obj 130 16 r click.restore.2;
#X obj 130 38 + 8;
#X connect 0 0 3 0;
#X connect 2 0 1 0;
#X connect 3 0 1 0;
#X connect 3 1 4 0;
#X connect 4 0 2 0;
#X connect 5 0 6 0;
#X connect 6 0 3 0;
#X restore 537 164 pd get.from.group;
#N canvas 656 278 450 300 solo.click.tables 0;
#X obj 17 17 click.table 8;
#X obj 17 37 click.table 9;
#X obj 17 57 click.table 10;
#X obj 17 77 click.table 11;
#X obj 17 97 click.table 12;
#X obj 17 117 click.table 13;
#X obj 17 137 click.table 14;
#X obj 17 157 click.table 15;
#X restore 536 193 pd solo.click.tables;
#X text 514 4 === MENGENCLICKS ==========;
#X text 514 287 === SOLOCLICKS ============;
#X obj 526 351 tgl 18 0 8.click.copy \$0.bli 0 5 9 0 11 -203904 -1
-1 0 1;
#X obj 544 351 tgl 18 0 9.click.copy \$0.bli 1 5 9 0 11 -203904 -1
-1 0 1;
#X obj 562 351 tgl 18 0 10.click.copy \$0.bli 2 5 9 0 11 -203904 -1
-1 0 1;
#X obj 580 351 tgl 18 0 11.click.copy \$0.bli 3 5 9 0 11 -203904 -1
-1 0 1;
#X obj 598 351 tgl 18 0 12.click.copy \$0.bli 4 5 9 0 11 -203904 -1
-1 0 1;
#X obj 616 351 tgl 18 0 13.click.copy \$0.bli 5 5 9 0 11 -203904 -1
-1 0 1;
#X obj 634 351 tgl 18 0 14.click.copy \$0.bli 6 5 9 0 11 -203904 -1
-1 0 1;
#X obj 652 351 tgl 18 0 15.click.copy \$0.bli 7 5 9 0 11 -203904 -1
-1 0 1;
#X obj 526 317 tgl 18 0 empty empty empty 17 7 0 10 -262144 -1 -1 0
1;
#X obj 527 389 hradio 18 1 0 8 click.restore.2 click.restore.2 empty
0 -8 0 10 -204800 -1 -1 0;
#X text 587 35 update tables;
#X text 584 325 update tables;
#X text 608 372 show table;
#X text 610 81 show table;
#X connect 2 0 8 0;
#X connect 3 0 5 0;
#X connect 4 0 3 0;
#X connect 6 0 5 0;
#X connect 6 1 4 0;
#X connect 6 2 3 1;
#X connect 7 0 11 0;
#X connect 8 0 1 0;
#X connect 10 0 9 0;
#X connect 11 0 6 0;
#X connect 11 1 10 0;
#X connect 12 0 8 0;
#X connect 15 0 18 0;
#X connect 17 0 16 0;
#X connect 18 0 16 0;
#X connect 20 0 33 0;
#X connect 23 0 22 0;
#X connect 24 0 32 0;
#X connect 25 0 26 0;
#X connect 25 1 28 1;
#X connect 26 0 28 0;
#X connect 27 0 25 0;
#X connect 28 0 30 0;
#X connect 29 0 23 0;
#X connect 30 0 22 0;
#X connect 30 1 29 0;
#X connect 30 2 31 0;
#X connect 31 0 29 1;
#X connect 32 0 27 0;
#X connect 33 0 34 0;
#X connect 33 1 35 0;
#X connect 34 0 25 0;
#X connect 35 0 25 0;
#X connect 45 0 37 0;
#X connect 45 0 38 0;
#X connect 45 0 39 0;
#X connect 45 0 40 0;
#X connect 45 0 41 0;
#X connect 45 0 42 0;
#X connect 45 0 43 0;
#X connect 45 0 44 0;
#X connect 59 0 51 0;
#X connect 59 0 52 0;
#X connect 59 0 53 0;
#X connect 59 0 54 0;
#X connect 59 0 55 0;
#X connect 59 0 56 0;
#X connect 59 0 57 0;
#X connect 59 0 58 0;
#X restore 9 113 pd click_forms;
#N canvas 220 45 588 545 presets 0;
#N canvas 530 729 450 300 state.save.f 0;
#X restore 331 14 pd state.save.f gemeinsam;
#N canvas 530 729 450 300 state.save.f 0;
#X restore 331 38 pd state.save.f individuell;
#N canvas 530 729 450 300 state.save.f 0;
#X restore 331 63 pd state.save.f groupmin;
#N canvas 530 729 450 300 state.save.f 0;
#X restore 331 87 pd state.save.f groupmax;
#N canvas 530 729 450 300 state.save.f 0;
#X restore 331 113 pd state.save.f rolemin;
#N canvas 530 729 450 300 state.save.f 0;
#X restore 331 137 pd state.save.f rolemax;
#N canvas 530 729 450 300 state.save.f 0;
#X restore 331 163 pd state.save.f individualmin;
#N canvas 530 729 450 300 state.save.f 0;
#X restore 331 187 pd state.save.f individualmax;
#X text 45 22 save presets;
#N canvas 283 217 381 286 state.save 0;
#X obj 65 104 s state_dump_req;
#X obj 65 124 r state_dump_send;
#X obj 46 219 textfile;
#X msg 225 141 clear;
#X obj 46 66 t a b b;
#X obj 65 146 list prepend add;
#X obj 65 168 list trim;
#X msg 46 192 write presets/\$1.txt cr;
#X obj 46 37 inlet;
#X connect 1 0 5 0;
#X connect 3 0 2 0;
#X connect 4 0 7 0;
#X connect 4 1 0 0;
#X connect 4 2 3 0;
#X connect 5 0 6 0;
#X connect 6 0 2 0;
#X connect 7 0 2 0;
#X connect 8 0 4 0;
#X restore 47 63 pd state.save;
#X obj 47 42 cnv 14 122 14 empty empty empty 20 12 0 14 -261234 -66577
0;
#X symbolatom 47 42 20 0 0 0 - - -;
#N canvas 310 340 417 312 state.restore 0;
#X obj 85 20 inlet;
#X obj 85 94 openpanel;
#X obj 85 203 textfile;
#X msg 112 139 read \$1 cr \, rewind;
#X obj 85 116 t b a;
#X obj 85 172 until;
#X obj 85 42 route bang;
#X msg 142 64 symbol presets/\$1.txt;
#X obj 119 291 send;
#X obj 85 225 t a a;
#X obj 85 248 list split 1;
#X obj 169 248 list split 1;
#X connect 0 0 6 0;
#X connect 1 0 4 0;
#X connect 2 0 9 0;
#X connect 2 1 5 1;
#X connect 3 0 2 0;
#X connect 4 0 5 0;
#X connect 4 1 3 0;
#X connect 5 0 2 0;
#X connect 6 0 1 0;
#X connect 6 1 7 0;
#X connect 7 0 4 0;
#X connect 9 0 10 0;
#X connect 9 1 11 0;
#X connect 10 1 8 0;
#X connect 11 0 8 1;
#X restore 50 144 pd state.restore;
#X obj 50 121 bng 17 250 50 0 empty empty empty 17 7 0 10 -4034 -1
-1;
#X obj 74 122 cnv 14 122 14 empty empty empty 20 12 0 14 -4034 -66577
0;
#X symbolatom 74 122 20 0 0 0 - - -;
#X connect 11 0 9 0;
#X connect 13 0 12 0;
#X connect 15 0 12 0;
#X restore 6 144 pd presets;
#X obj 13 216 recorder;
#X obj 13 252 player;
#N canvas 255 22 1011 691 solo 0;
#X obj 254 339 print;
#X obj -225 414 sequence.player;
#X obj -225 436 print;
#X obj 255 138 print;
#X obj -225 224 print;
#X obj 254 637 print;
#X obj 254 317 sequence.player;
#X obj 255 116 sequence.player;
#X obj -225 202 sequence.player;
#X obj 254 615 sequence.player;
#X text -314 24 <click-type> <repeat> <interval> <speaker> <interval>
...;
#X msg 254 164 0 1 200 1 100 1 200 1 100 1 200 1 100 1 200 1 100 1
200 1 100 1 200 1 100 1 200 1 100 1 200 1 100 1 200 1 100 1 200 1 100
1 200 1 100 1 200 1 100 1 200 1 100 1 200 1 100 1 200 1 100 1 200 1
100 1 200 1 100 1 200 1 100 1 200 1 100 1 200 1 100 1 200 1 100 1 200
1 100 1 200 1 100 1 200 1 100 1 200 1 100 1 200 1 100 1 200 1 100 1
200 1 100 1 200 1 100 1 200 1 100 1 200 1 100 1 200 1 100 1 200 1 100
1 200 1 100 1 200 1 100 1 200 1 100 1 200 1 100 1 200 1 100 1 200 1
100 1 200 1 100 1 200 1 100 1 200 1 100 1 200 1 100 1 200 1 100 1 200
1 100 1;
#X msg 255 74 0 1 200 0 200 0 200 0 200 1 200 1;
#X text 192 76 statisch;
#X msg -225 267 0 1 24.5325 0 1096.63 0 897.847 0 29.9641 1 735.095
0 601.845 1 36.5982 0 492.749 0 403.429 0 44.7012 1 330.3 1 270.426
0 54.5981 1 221.406 1 181.272 0 66.6863 1 148.413 0 121.51 1 81.4509
1 99.4843 1 81.4509 1 99.4843 0 66.6863 0 54.5981 0 121.51 1 44.7012
1 36.5982 0 148.413 0 29.9641 1 24.5325 0 181.272 0 1096.63 1 897.847
1 221.406 1 735.095 0 601.845 0 270.426 0 492.749 1 403.429 1 330.3
0 330.3 1 270.426 1 403.429 0 221.406 1 181.272 1 492.749 0 148.413
0 121.51 0 601.845 0 99.4843 0 81.4509 1 735.095 0 66.6863 1 54.5981
1 897.847 1 44.7012 1 36.5982 0 1096.63 0 29.9641 1 24.5325 0;
#X msg 254 377 0 1 20.9052 1 21.7584 0 22.6464 0 23.5706 1 24.5325
0 25.5337 0 26.5758 1 27.6603 0 28.7892 0 29.9641 1 31.187 1 32.4597
0 33.7844 1 35.1632 1 36.5982 0 38.0918 1 39.6464 1 41.2644 0 42.9484
0 44.7012 0 46.5255 0 48.4242 0 50.4004 0 52.4573 1 54.5981 0 56.8263
0 59.1455 0 61.5592 0 64.0715 1 66.6863 0 69.4078 0 72.2405 0 75.1886
0 78.2571 0 81.4509 0 84.7749 1 88.2347 0 91.8356 0 95.5835 0 99.4843
1 103.544 0 107.77 1 112.168 1 116.746 1 121.51 1 126.469 1 131.631
0 137.003 0 142.594 0 148.413 0 154.47 1 160.774 1 167.335 0 174.164
1 181.272 0 188.67 0 196.37 1 204.384 1 212.725 0 221.406 0 230.442
1 239.847 0 249.635 0 259.823 1 270.426 0 281.463 0 292.949 1 304.905
0 317.348 0 330.3 1 343.779 1 357.809 0 372.412 1 387.61 1 403.429
0 419.893 1 437.029 1 454.865 0 473.428 0 492.749 0 512.858 0 533.789
0 555.573 0 578.246 1 601.845 0 626.407 0 651.971 0 678.578 0 706.272
1 735.095 0 765.095 0 796.319 0 828.817 0 862.642 0 897.847 0 934.489
1 972.626 0 1012.32 0 1053.63 0 1096.63 1;
#X text 181 163 Verhältnis;
#X text 186 381 raufzählen;
#X msg -225 74 0 1 30 1 500 1 476.5 1 53.5 0 453 1 429.5 0 77 0 406
1 382.5 1 100.5 0 359 1 335.5 1 124 1 312 1 288.5 1 147.5 1 265 0 241.5
1 171 1 218 1 194.5 0 194.5 1 171 0 147.5 1 218 1 124 1 100.5 1 241.5
0 77 0 53.5 1 265 1 30 1 500 1 288.5 0 476.5 1 453 0 312 1 429.5 0
406 1 335.5 1 382.5 0 359 0 359 1 335.5 0 312 0 382.5 1 288.5 0 265
0 406 1 241.5 1 218 1 429.5 0 194.5 0 171 1 453 0 147.5 0 124 1 476.5
0 100.5 1 77 1;
#X text -270 70 Kurven linear;
#X text -272 263 Kurven exp;
#X connect 1 0 2 0;
#X connect 6 0 0 0;
#X connect 7 0 3 0;
#X connect 8 0 4 0;
#X connect 9 0 5 0;
#X connect 11 0 6 0;
#X connect 12 0 7 0;
#X connect 14 0 1 0;
#X connect 15 0 9 0;
#X connect 18 0 8 0;
#X restore 9 174 pd solo;
