#N canvas 0 72 220 518 10;
#X declare -path . -path include;
#X declare -stdpath extra/iemlib;
#X declare -stdpath extra/ggee;
#N canvas 220 44 453 328 INIT 0;
#X obj 15 91 loadbang;
#X obj 15 12 declare -path . -path include;
#X obj 258 24 r Aufmerksamkeitsspanne;
#X obj 313 50 * 1000;
#X obj 258 121 *;
#X obj 258 74 t a b;
#X obj 285 98 samplerate~;
#X msg 258 143 resize \$1;
#X obj 258 165 s Kollektivgedächtnis;
#X obj 313 72 s buffer_in_ms;
#X obj 15 33 declare -stdpath extra/iemlib;
#X obj 15 55 declare -stdpath extra/ggee;
#X msg 15 112 \; pd dsp 1 \; threshold 90 \; debounce 200 \; Aufmerksamkeitsspanne
40 \; groupmin 0 \; groupmax 7 \; rolemin 0 \; rolemax 7 \; individualmin
0 \; individualmax 63 \; pitch 1 \; gemeinsam 1000 \; individuell 80
\; mengenvolumen 0.8 \;;
#X connect 0 0 12 0;
#X connect 2 0 3 0;
#X connect 2 0 5 0;
#X connect 3 0 9 0;
#X connect 4 0 7 0;
#X connect 5 0 4 0;
#X connect 5 1 6 0;
#X connect 6 0 4 1;
#X connect 7 0 8 0;
#X restore 8 14 pd INIT;
#N canvas 220 44 583 546 Menge 1;
#X obj 168 17 hsl 128 20 10 10000 1 0 gemeinsam gemeinsam gemeinsam
20 10 0 14 -204786 -1 -1 8467 1;
#X obj 305 17 hsl 128 20 10 10000 1 0 individuell individuell individuell
20 10 0 14 -204786 -1 -1 3823 1;
#X obj 60 18 tgl 20 0 mitmachen \$0.bli mitmachen 25 10 0 14 -204786
-1 -1 0 1;
#X obj 175 63 r gemeinsam;
#X floatatom 175 85 5 0 0 0 - - -;
#X floatatom 311 90 5 0 0 0 - - -;
#X obj 313 67 r individuell;
#X obj 206 289 Gruppe 0;
#X obj 63 122 nbx 5 14 -1e+37 1e+37 0 0 pitch pitch pitch 0 -8 0 10
-262144 -1 -1 1 256;
#X obj 160 130 hradio 15 1 0 8 groupmin groupmin groupmin 0 -8 0 10
-262144 -1 -1 0;
#X obj 160 161 hradio 15 1 0 8 groupmax groupmax groupmax 0 -8 0 10
-262144 -1 -1 7;
#X obj 363 129 hradio 15 1 0 8 rolemin rolemin rolemin 0 -8 0 10 -262144
-1 -1 0;
#X obj 363 160 hradio 15 1 0 8 rolemax rolemax rolemax 0 -8 0 10 -262144
-1 -1 7;
#X obj 265 289 Gruppe 1;
#X obj 321 289 Gruppe 2;
#X obj 377 288 Gruppe 3;
#X obj 206 312 Gruppe 4;
#X obj 265 312 Gruppe 5;
#X obj 321 312 Gruppe 6;
#X obj 377 311 Gruppe 7;
#X obj 135 228 nbx 5 14 0 63 0 0 individualmin individualmin individualmin
0 -8 0 10 -262144 -1 -1 0 256;
#X obj 223 230 nbx 5 14 0 63 0 0 individualmax individualmax individualmax
0 -8 0 10 -262144 -1 -1 63 256;
#X floatatom 447 88 5 0 0 0 - - -;
#X floatatom 304 111 5 0 0 0 - - -;
#X obj 64 392 hsl 160 20 0 1 0 0 mengenvolumen mengenvolumen mengenvolumen
20 10 0 14 -261234 -1 -1 12720 1;
#N canvas 0 50 450 250 (subpatch) 0;
#X array click 30 float 1;
#A 0 0.3 0 0 0 0 0 0 0 0 0 0 0 0 0 0 0 0 0 0 0 0 0 0 0 0 0 0 0 0 0
;
#X coords 0 1 29 -1 60 60 1 0 0;
#X restore 282 435 graph;
#X obj 424 460 s click;
#X obj 424 414 loadbang;
#X msg 424 436 const 0 \, 0 0.3;
#X connect 3 0 4 0;
#X connect 6 0 5 0;
#X connect 22 0 11 0;
#X connect 22 0 12 0;
#X connect 23 0 9 0;
#X connect 23 0 10 0;
#X connect 27 0 28 0;
#X connect 28 0 26 0;
#X restore 9 78 pd Menge;
#N canvas 220 44 588 546 Medienzentrale 0;
#N canvas 621 81 439 661 threshold_detection 0;
#X obj 19 68 bang~;
#X msg 19 137 64;
#X obj 19 115 t b b;
#X msg 59 146 0;
#X obj 19 159 until;
#X obj 19 182 f;
#X obj 76 183 + 1;
#X obj 19 259 abs;
#X obj 17 10 inlet~;
#X obj 19 208 t a a;
#X obj 19 291 >;
#X obj 160 70 inlet;
#X obj 219 157 dbtorms;
#X obj 19 313 sel 1;
#X obj 19 334 f;
#X obj 19 90 spigot 1;
#X obj 19 356 t a b;
#X obj 212 217 t b b;
#X msg 212 265 0;
#X obj 239 241 del 100;
#X msg 239 263 1;
#X obj 212 289 t a;
#X obj 69 596 outlet;
#X obj 19 234 tabread \$0.peak;
#X obj 17 32 tabsend~ \$0.peak;
#X obj 295 15 table \$0.peak 64;
#X obj 109 269 b;
#N canvas 243 221 185 167 sapmle(ms) 0;
#X obj 43 51 samplerate~;
#X msg 43 73 1000 \$1;
#X obj 43 95 /;
#X obj 43 28 inlet;
#X obj 43 118 outlet;
#X connect 0 0 1 0;
#X connect 1 0 2 0;
#X connect 2 0 4 0;
#X connect 3 0 0 0;
#X restore 164 384 pd sapmle(ms);
#X obj 164 357 loadbang;
#X obj 19 420 *;
#X obj 164 424 * 64;
#X obj 19 457 -;
#X obj 96 495 t b a;
#X obj 69 528 timer;
#X obj 69 556 +;
#X obj 160 103 route reset threshold debounce;
#X obj 160 143 b;
#X connect 0 0 15 0;
#X connect 1 0 4 0;
#X connect 2 0 1 0;
#X connect 2 1 3 0;
#X connect 3 0 5 1;
#X connect 4 0 5 0;
#X connect 5 0 6 0;
#X connect 5 0 9 0;
#X connect 6 0 5 1;
#X connect 7 0 10 0;
#X connect 8 0 24 0;
#X connect 9 0 23 0;
#X connect 9 1 14 1;
#X connect 10 0 13 0;
#X connect 11 0 35 0;
#X connect 12 0 10 1;
#X connect 13 0 14 0;
#X connect 14 0 16 0;
#X connect 15 0 2 0;
#X connect 16 0 29 0;
#X connect 16 1 17 0;
#X connect 16 1 26 0;
#X connect 17 0 18 0;
#X connect 17 1 19 0;
#X connect 18 0 21 0;
#X connect 19 0 20 0;
#X connect 20 0 21 0;
#X connect 21 0 15 1;
#X connect 23 0 7 0;
#X connect 26 0 4 1;
#X connect 27 0 29 1;
#X connect 27 0 30 0;
#X connect 28 0 27 0;
#X connect 29 0 31 0;
#X connect 30 0 31 1;
#X connect 31 0 32 0;
#X connect 32 0 33 1;
#X connect 32 1 34 1;
#X connect 33 0 34 0;
#X connect 34 0 22 0;
#X connect 35 0 36 0;
#X connect 35 1 12 0;
#X connect 35 2 19 1;
#X connect 36 0 33 0;
#X restore 47 244 pd threshold_detection;
#X msg 230 203 threshold \$1;
#X msg 176 202 reset;
#X msg 328 203 debounce \$1;
#X msg 145 289 set;
#X msg 47 290 add2 \$1 \, bang;
#X obj 230 156 r threshold;
#X floatatom 230 178 5 0 0 0 - - -;
#X obj 328 156 r debounce;
#X floatatom 328 178 5 0 0 0 - - -;
#X obj 179 38 bng 30 250 50 0 record empty record 33 4 0 16 -258113
-1 -1;
#X obj 145 170 r record;
#X msg 47 324;
#X obj 47 483 s eventlist;
#X obj 254 265 r geteventlist;
#X obj 254 287 del 0;
#N canvas 488 280 343 261 write_to_buffer 0;
#X obj 21 31 inlet~;
#X obj 21 227 outlet~;
#X msg 160 133 stop;
#X obj 133 23 r record;
#X msg 43 171 1;
#X obj 22 197 *~ 0;
#X obj 133 45 t b b;
#X msg 76 171 0;
#X obj 133 223 tabwrite~ Kollektivgedächtnis;
#X obj 160 67 del 100;
#X obj 199 38 r buffer_in_ms;
#X connect 0 0 5 0;
#X connect 0 0 8 0;
#X connect 2 0 8 0;
#X connect 3 0 6 0;
#X connect 4 0 5 1;
#X connect 5 0 1 0;
#X connect 6 0 4 0;
#X connect 6 0 8 0;
#X connect 6 1 9 0;
#X connect 7 0 5 1;
#X connect 9 0 2 0;
#X connect 9 0 7 0;
#X connect 10 0 9 1;
#X restore 46 112 pd write_to_buffer;
#X obj 47 267 - 20;
#X text 80 267 look-ahead delay;
#X obj 46 29 adc~ 1;
#X connect 0 0 17 0;
#X connect 1 0 0 1;
#X connect 2 0 0 1;
#X connect 3 0 0 1;
#X connect 4 0 12 0;
#X connect 5 0 12 0;
#X connect 6 0 7 0;
#X connect 7 0 1 0;
#X connect 8 0 9 0;
#X connect 9 0 3 0;
#X connect 11 0 2 0;
#X connect 11 0 4 0;
#X connect 12 0 13 0;
#X connect 14 0 15 0;
#X connect 15 0 12 0;
#X connect 16 0 0 0;
#X connect 17 0 5 0;
#X connect 19 0 16 0;
#X restore 8 38 pd Medienzentrale;
#X obj 12 245 master.mixer \$0 1;
