#N canvas 626 205 399 298 10;
#X obj 20 48 hradio 14 1 0 8 \$0.chan \$0.chan.r empty 0 -8 0 10 -228856
-258113 -1 1;
#X text 21 47 1;
#X text 35 47 2;
#X text 49 47 3;
#X text 63 47 4;
#X text 77 47 5;
#X text 91 47 6;
#X text 105 47 7;
#X text 119 47 8;
#X obj 23 34 hsl 107 14 0 1.2 0 0 \$0.vol \$0.vol.r empty -2 -8 0 10
-228856 -258113 -1 1567 1;
#X obj 282 28 loadbang;
#X obj 282 50 f \$2;
#X obj 282 96 s \$0.chan.r;
#X obj 140 182 r \$0.chan;
#X obj 140 204 + 1;
#X obj 282 73 - 1;
#X msg 140 226 set out\$1;
#X obj 23 265 throw~ out1;
#X obj 206 28 loadbang;
#X obj 206 50 f \$1;
#X obj 206 96 s \$0.vol.r;
#X obj 76 110 t a a;
#X obj 76 132 *;
#X msg 76 157 \$1 20;
#X obj 76 179 line~;
#X obj 22 101 inlet~;
#X obj 23 207 *~;
#X text 249 261 2013 \, Roman Haefeli;
#X obj 76 88 r \$0.vol;
#X connect 10 0 11 0;
#X connect 11 0 15 0;
#X connect 13 0 14 0;
#X connect 14 0 16 0;
#X connect 15 0 12 0;
#X connect 16 0 17 0;
#X connect 18 0 19 0;
#X connect 19 0 20 0;
#X connect 21 0 22 0;
#X connect 21 1 22 1;
#X connect 22 0 23 0;
#X connect 23 0 24 0;
#X connect 24 0 26 1;
#X connect 25 0 26 0;
#X connect 26 0 17 0;
#X connect 28 0 21 0;
#X coords 0 -1 1 1 112 42 1 20 20;
