#N canvas 79 158 1146 514 10;
#X obj 200 48 vsl 20 60 0 1 0 0 \$0.ch.rout.1 \$0.ch.rout.1 1 7 12
2 11 -220534 -128992 -1 0 1;
#X obj 78 210 t f f;
#X obj 78 235 *;
#X obj 725 205 t f f;
#X obj 725 230 *;
#X obj 78 346 *;
#X obj 78 390 line~;
#X obj 61 440 *~;
#X obj 160 210 t f f;
#X obj 160 235 *;
#X obj 160 344 *;
#X obj 160 390 line~;
#X obj 143 440 *~;
#X obj 242 210 t f f;
#X obj 242 235 *;
#X obj 242 344 *;
#X obj 242 390 line~;
#X obj 225 440 *~;
#X obj 324 213 t f f;
#X obj 324 238 *;
#X obj 324 344 *;
#X obj 324 390 line~;
#X obj 307 440 *~;
#X obj 406 210 t f f;
#X obj 406 235 *;
#X obj 406 344 *;
#X obj 406 390 line~;
#X obj 389 440 *~;
#X obj 488 210 t f f;
#X obj 488 235 *;
#X obj 488 344 *;
#X obj 488 390 line~;
#X obj 471 440 *~;
#X obj 570 210 t f f;
#X obj 570 235 *;
#X obj 570 344 *;
#X obj 570 390 line~;
#X obj 553 440 *~;
#X obj 652 210 t f f;
#X obj 652 235 *;
#X obj 652 344 *;
#X obj 652 390 line~;
#X obj 635 439 *~;
#X obj 725 258 t b f;
#X obj 220 48 vsl 20 60 0 1 0 0 \$0.ch.rout.2 \$0.ch.rout.2 2 7 12
2 11 -262144 -128992 -1 0 1;
#X obj 240 48 vsl 20 60 0 1 0 0 \$0.ch.rout.3 \$0.ch.rout.3 3 7 12
2 11 -220534 -128992 -1 0 1;
#X obj 260 48 vsl 20 60 0 1 0 0 \$0.ch.rout.4 \$0.ch.rout.4 4 7 12
2 11 -262144 -128992 -1 0 1;
#X obj 300 48 vsl 20 60 0 1 0 0 \$0.ch.rout.6 \$0.ch.rout.6 6 7 12
2 11 -262144 -128992 -1 0 1;
#X obj 340 48 vsl 20 60 0 1 0 0 \$0.ch.rout.8 \$0.ch.rout.8 8 7 12
2 11 -262144 -128992 -1 0 1;
#X obj 360 48 vsl 20 60 0 1 0 0 \$0.ch.rout.M \$0.ch.rout.M M 6 12
2 11 -166441 -262144 -1 5900 1;
#X obj 22 407 inlet~;
#X obj 61 490 throw~ out1;
#X obj 143 465 throw~ out2;
#X obj 225 491 throw~ out3;
#X obj 307 466 throw~ out4;
#X obj 390 493 throw~ out5;
#X obj 472 468 throw~ out6;
#X obj 554 494 throw~ out7;
#X obj 636 469 throw~ out8;
#X obj 280 48 vsl 20 60 0 1 0 0 \$0.ch.rout.5 \$0.ch.rout.5 5 7 12
2 11 -220534 -128992 -1 0 1;
#X obj 320 48 vsl 20 60 0 1 0 0 \$0.ch.rout.7 \$0.ch.rout.7 7 7 12
2 11 -220534 -128992 -1 0 1;
#X text 509 54 2013 \, Roman Haefeli;
#X msg 511 27 version 0 1 0;
#X obj 845 16 r \$0.ch.rout.1;
#X obj 845 185 r \$0.ch.rout.M;
#X obj 845 37 r \$0.ch.rout.2;
#X obj 845 58 r \$0.ch.rout.3;
#X obj 78 182 route float;
#X obj 160 184 route float;
#X obj 242 184 route float;
#X obj 324 186 route float;
#X obj 406 183 route float;
#X obj 488 185 route float;
#X obj 570 185 route float;
#X obj 652 186 route float;
#X obj 784 212 route float;
#X obj 845 79 r \$0.ch.rout.4;
#X obj 845 99 r \$0.ch.rout.5;
#X obj 845 120 r \$0.ch.rout.6;
#X obj 845 141 r \$0.ch.rout.7;
#X obj 845 162 r \$0.ch.rout.8;
#X obj 981 83 s \$0.ch.rout.M;
#X obj 981 39 loadbang;
#X msg 981 61 1;
#X obj 965 272 list split 1;
#X obj 965 228 until;
#X obj 965 249 list append;
#X obj 1047 230 bang;
#X obj 965 205 t b a;
#X obj 965 139 inlet;
#X obj 965 184 t a b;
#X obj 965 294 t a b;
#X obj 992 315 f;
#X obj 992 337 + 1;
#X msg 1065 274 0;
#X obj 965 161 route mix;
#X obj 965 365 list prepend;
#X obj 965 387 list prepend \$0;
#X msg 965 411 \; \$1.ch.rout.\$2 \$3;
#X obj 789 295 route master;
#X obj 789 359 s \$0.ch.rout.M;
#X floatatom 126 406 5 0 0 0 - - -;
#X msg 160 368 \$1 50;
#X msg 242 368 \$1 50;
#X msg 324 368 \$1 50;
#X msg 406 368 \$1 50;
#X msg 488 368 \$1 50;
#X msg 570 368 \$1 50;
#X msg 652 368 \$1 50;
#X msg 78 368 \$1 50;
#X connect 1 0 2 0;
#X connect 1 1 2 1;
#X connect 2 0 5 0;
#X connect 3 0 4 0;
#X connect 3 1 4 1;
#X connect 4 0 43 0;
#X connect 5 0 109 0;
#X connect 6 0 7 1;
#X connect 7 0 51 0;
#X connect 8 0 9 0;
#X connect 8 1 9 1;
#X connect 9 0 10 0;
#X connect 10 0 102 0;
#X connect 11 0 12 1;
#X connect 12 0 52 0;
#X connect 13 0 14 0;
#X connect 13 1 14 1;
#X connect 14 0 15 0;
#X connect 15 0 103 0;
#X connect 16 0 17 1;
#X connect 17 0 53 0;
#X connect 18 0 19 0;
#X connect 18 1 19 1;
#X connect 19 0 20 0;
#X connect 20 0 104 0;
#X connect 21 0 22 1;
#X connect 22 0 54 0;
#X connect 23 0 24 0;
#X connect 23 1 24 1;
#X connect 24 0 25 0;
#X connect 25 0 105 0;
#X connect 26 0 27 1;
#X connect 27 0 55 0;
#X connect 28 0 29 0;
#X connect 28 1 29 1;
#X connect 29 0 30 0;
#X connect 30 0 106 0;
#X connect 31 0 32 1;
#X connect 32 0 56 0;
#X connect 33 0 34 0;
#X connect 33 1 34 1;
#X connect 34 0 35 0;
#X connect 35 0 107 0;
#X connect 36 0 37 1;
#X connect 37 0 57 0;
#X connect 38 0 39 0;
#X connect 38 1 39 1;
#X connect 39 0 40 0;
#X connect 40 0 108 0;
#X connect 41 0 42 1;
#X connect 42 0 58 0;
#X connect 43 0 40 0;
#X connect 43 0 35 0;
#X connect 43 0 30 0;
#X connect 43 0 25 0;
#X connect 43 0 20 0;
#X connect 43 0 15 0;
#X connect 43 0 10 0;
#X connect 43 0 5 0;
#X connect 43 1 40 1;
#X connect 43 1 35 1;
#X connect 43 1 30 1;
#X connect 43 1 25 1;
#X connect 43 1 20 1;
#X connect 43 1 15 1;
#X connect 43 1 10 1;
#X connect 43 1 5 1;
#X connect 50 0 42 0;
#X connect 50 0 7 0;
#X connect 50 0 12 0;
#X connect 50 0 17 0;
#X connect 50 0 22 0;
#X connect 50 0 27 0;
#X connect 50 0 32 0;
#X connect 50 0 37 0;
#X connect 63 0 67 0;
#X connect 64 0 75 0;
#X connect 65 0 68 0;
#X connect 66 0 69 0;
#X connect 67 0 1 0;
#X connect 68 0 8 0;
#X connect 69 0 13 0;
#X connect 70 0 18 0;
#X connect 71 0 23 0;
#X connect 72 0 28 0;
#X connect 73 0 33 0;
#X connect 74 0 38 0;
#X connect 75 0 3 0;
#X connect 76 0 70 0;
#X connect 77 0 71 0;
#X connect 78 0 72 0;
#X connect 79 0 73 0;
#X connect 80 0 74 0;
#X connect 82 0 83 0;
#X connect 83 0 81 0;
#X connect 84 0 91 0;
#X connect 84 1 86 1;
#X connect 84 2 87 0;
#X connect 85 0 86 0;
#X connect 86 0 84 0;
#X connect 87 0 85 1;
#X connect 88 0 85 0;
#X connect 88 1 86 1;
#X connect 89 0 95 0;
#X connect 89 0 99 0;
#X connect 90 0 88 0;
#X connect 90 1 94 0;
#X connect 91 0 96 0;
#X connect 91 1 92 0;
#X connect 92 0 93 0;
#X connect 93 0 92 1;
#X connect 93 0 96 1;
#X connect 94 0 92 1;
#X connect 95 0 90 0;
#X connect 96 0 97 0;
#X connect 97 0 98 0;
#X connect 99 0 100 0;
#X connect 102 0 11 0;
#X connect 103 0 16 0;
#X connect 104 0 21 0;
#X connect 105 0 26 0;
#X connect 106 0 31 0;
#X connect 107 0 36 0;
#X connect 108 0 41 0;
#X connect 109 0 6 0;
#X coords 0 -1 1 1 180 81 1 200 30;
