#N canvas 471 59 309 430 10;
#X obj 34 186 hsl 128 15 0 1 0 0 empty empty empty -2 -8 0 10 -262144
-1 -1 0 1;
#X obj 32 340 line~;
#X obj 202 273 osc~ 440;
#X msg 32 314 \$1 30;
#X obj 31 211 t f f;
#X obj 31 233 *;
#X obj 30 159 line 0 30;
#X obj 33 258 t f f;
#X obj 33 280 *;
#X obj 30 44 tgl 40 0 empty empty empty 17 7 0 10 -232576 -1 -1 0 1
;
#X obj 30 97 sel 1 0;
#X obj 32 363 *~;
#X obj 32 388 outlet~;
#X msg 103 126 0;
#X msg 30 126 0 \, 1 100000;
#X connect 0 0 4 0;
#X connect 1 0 11 0;
#X connect 2 0 11 1;
#X connect 3 0 1 0;
#X connect 4 0 5 0;
#X connect 4 1 5 1;
#X connect 5 0 7 0;
#X connect 6 0 0 0;
#X connect 7 0 8 0;
#X connect 7 1 8 1;
#X connect 8 0 3 0;
#X connect 9 0 10 0;
#X connect 10 0 14 0;
#X connect 10 1 13 0;
#X connect 11 0 12 0;
#X connect 13 0 6 0;
#X connect 13 0 1 0;
#X connect 14 0 6 0;
#X coords 0 -1 1 1 40 54 1 30 30;
