#N canvas 434 163 327 349 10;
#X obj 29 19 r mitmachen;
#N canvas 615 414 358 330 get.random.segment 0;
#X obj 36 107 t a a;
#X obj 63 129 list length;
#X obj 63 174 random;
#X obj 63 151 t b a;
#X obj 36 205 list split 0;
#X obj 36 82 list append;
#X obj 99 53 r eventlist;
#X obj 248 16 loadbang;
#X obj 248 38 s geteventlist;
#X obj 36 22 inlet;
#X obj 36 44 b;
#X obj 70 295 outlet;
#X obj 70 228 list split 2;
#X obj 139 254 pack f f;
#X obj 184 217 r buffer_in_ms;
#X connect 0 0 4 0;
#X connect 0 1 1 0;
#X connect 1 0 3 0;
#X connect 2 0 4 1;
#X connect 3 0 2 0;
#X connect 3 1 2 1;
#X connect 4 1 12 0;
#X connect 5 0 0 0;
#X connect 6 0 5 1;
#X connect 7 0 8 0;
#X connect 9 0 10 0;
#X connect 10 0 5 0;
#X connect 12 0 11 0;
#X connect 12 2 13 0;
#X connect 13 0 11 0;
#X connect 14 0 13 1;
#X restore 29 209 pd get.random.segment;
#X obj 145 67 f;
#X obj 145 171 +;
#X obj 145 89 t a b;
#X obj 172 127 random;
#X obj 160 36 r gemeinsam;
#X obj 205 82 r individuell;
#X obj 29 41 sel 0 1;
#X obj 29 107 del;
#X obj 29 131 t b b;
#X msg 29 72 stop;
#X obj 29 253 play.segment.precise;
#X obj 205 104 * 10000;
#X obj 172 149 / 10000;
#N canvas 355 163 363 432 routing 0;
#X obj 103 35 loadbang;
#X obj 103 125 t a a;
#X obj 103 148 - 1;
#X obj 103 170 * -1;
#X obj 17 253 *~ 0;
#X obj 60 253 *~ 0;
#X obj 103 102 wrap;
#X obj 186 166 mod 8;
#X obj 186 187 + 1;
#X obj 150 166 mod 8;
#X obj 150 187 + 1;
#X obj 150 143 - 1;
#X obj 17 19 inlet~;
#X obj 103 79 t a a;
#X obj 150 119 t a a;
#X obj 103 57 f \$3;
#X msg 186 208 set out\$1;
#X msg 150 228 set out\$1;
#X obj 60 311 throw~ out2;
#X obj 17 335 throw~ out1;
#X connect 0 0 15 0;
#X connect 1 0 2 0;
#X connect 1 1 5 1;
#X connect 2 0 3 0;
#X connect 3 0 4 1;
#X connect 4 0 19 0;
#X connect 5 0 18 0;
#X connect 6 0 1 0;
#X connect 7 0 8 0;
#X connect 8 0 16 0;
#X connect 9 0 10 0;
#X connect 10 0 17 0;
#X connect 11 0 9 0;
#X connect 12 0 4 0;
#X connect 12 0 5 0;
#X connect 13 0 6 0;
#X connect 13 1 14 0;
#X connect 14 0 11 0;
#X connect 14 1 7 0;
#X connect 15 0 13 0;
#X connect 16 0 18 0;
#X connect 17 0 19 0;
#X restore 28 300 pd routing;
#X msg 62 72 0;
#N canvas 577 211 450 300 obey 0;
#X obj 33 18 inlet;
#X obj 33 262 outlet;
#X obj 33 228 spigot 0;
#N canvas 818 188 248 248 Gruppenzugehörigkeit 0;
#X obj 20 27 r groupmin;
#X obj 90 27 r groupmax;
#X obj 20 85 <= \$1;
#X obj 90 85 >= \$1;
#X obj 20 163 &&;
#X obj 90 127 t b f;
#X obj 20 185 outlet;
#X connect 0 0 2 0;
#X connect 1 0 3 0;
#X connect 2 0 4 0;
#X connect 3 0 5 0;
#X connect 4 0 6 0;
#X connect 5 0 4 0;
#X connect 5 1 4 1;
#X restore 241 43 pd Gruppenzugehörigkeit;
#X text 142 19 args:;
#X text 142 33 \$1 group-ID;
#X text 143 46 \$2 role-ID;
#X text 143 58 \$3 position;
#N canvas 818 244 230 272 Rolle_in_der_Gruppe 0;
#X obj 84 162 &&;
#X obj 154 126 t b f;
#X obj 22 239 outlet;
#X obj 84 26 r rolemin;
#X obj 154 26 r rolemax;
#X obj 84 84 <= \$2;
#X obj 22 216 &&;
#X obj 84 187 t b f;
#X obj 22 22 inlet;
#X obj 154 84 >= \$2;
#X connect 0 0 7 0;
#X connect 1 0 0 0;
#X connect 1 1 0 1;
#X connect 3 0 5 0;
#X connect 4 0 9 0;
#X connect 5 0 0 0;
#X connect 6 0 2 0;
#X connect 7 0 6 0;
#X connect 7 1 6 1;
#X connect 8 0 6 0;
#X connect 9 0 1 0;
#X restore 241 78 pd Rolle_in_der_Gruppe;
#N canvas 803 261 326 316 individuell 0;
#X obj 84 200 &&;
#X obj 154 164 t b f;
#X obj 22 277 outlet;
#X obj 22 254 &&;
#X obj 84 225 t b f;
#X obj 22 22 inlet;
#X obj 84 26 r individualmin;
#X obj 154 52 r individualmax;
#X obj 84 122 <= 0;
#X obj 154 122 >= 0;
#X obj 187 89 r \$0.individualID;
#X connect 0 0 4 0;
#X connect 1 0 0 0;
#X connect 1 1 0 1;
#X connect 3 0 2 0;
#X connect 4 0 3 0;
#X connect 4 1 3 1;
#X connect 5 0 3 0;
#X connect 6 0 8 0;
#X connect 7 0 9 0;
#X connect 8 0 0 0;
#X connect 9 0 1 0;
#X connect 10 0 9 1;
#X connect 10 0 8 1;
#X restore 241 112 pd individuell;
#X obj 54 63 loadbang;
#X obj 54 85 list append \$1 \$2;
#X obj 54 107 unpack f f;
#X obj 54 129 * 8;
#X obj 54 151 +;
#X obj 54 173 s \$0.individualID;
#X obj 241 152 change 0;
#X connect 0 0 2 0;
#X connect 2 0 1 0;
#X connect 3 0 8 0;
#X connect 8 0 9 0;
#X connect 9 0 16 0;
#X connect 10 0 11 0;
#X connect 11 0 12 0;
#X connect 12 0 13 0;
#X connect 12 1 14 1;
#X connect 13 0 14 0;
#X connect 14 0 15 0;
#X connect 16 0 2 1;
#X restore 29 154 pd obey;
#X connect 0 0 8 0;
#X connect 1 0 12 0;
#X connect 2 0 4 0;
#X connect 3 0 9 0;
#X connect 4 0 3 0;
#X connect 4 1 5 0;
#X connect 5 0 14 0;
#X connect 6 0 2 1;
#X connect 7 0 13 0;
#X connect 8 0 11 0;
#X connect 8 1 16 0;
#X connect 9 0 10 0;
#X connect 10 0 17 0;
#X connect 10 1 2 0;
#X connect 11 0 9 0;
#X connect 12 0 15 0;
#X connect 13 0 5 1;
#X connect 14 0 3 1;
#X connect 16 0 4 0;
#X connect 17 0 1 0;
