#N canvas 556 59 552 462 10;
#X obj 15 313 readsf~ 9 1e+06;
#X obj 46 30 hsl 200 14 0 400 0 0 \$0.cursor \$0.cursor.r empty -2
-8 0 10 -204786 -258113 -1 2900 1;
#X obj 95 134 * 44100;
#X obj 30 30 tgl 14 0 \$0.startstop \$0.startstop.r empty 17 7 0 10
-4034 -258113 -1 1 1;
#X obj 15 169 sel 1 0;
#X obj 95 234 f;
#X msg 15 232 1;
#X obj 14 407 outlet~;
#X obj 66 407 outlet~;
#X obj 121 407 outlet~;
#X obj 173 407 outlet~;
#X obj 225 407 outlet~;
#X obj 277 407 outlet~;
#X obj 332 407 outlet~;
#X obj 384 407 outlet~;
#X obj 438 409 outlet~;
#X msg 95 256 open ../recherche/glitchtrack.wav \$1;
#X obj 34 196 t b b;
#X msg 61 234 0;
#X obj 15 134 t a a;
#X obj 95 169 list prepend 0;
#X obj 95 191 route 0 1;
#X obj 15 82 r \$0.startstop;
#X obj 95 110 r \$0.cursor;
#X obj 470 216 r \$0.cursor;
#X obj 470 238 * 1000;
#X obj 356 89 r \$0.startstop;
#X obj 356 111 t a a;
#X obj 356 153 metro 100;
#X obj 411 262 timer;
#X obj 411 181 sel 1 0;
#X obj 411 307 +;
#X obj 455 283 f;
#X obj 411 203 t b b;
#X obj 411 328 / 1000;
#X obj 411 350 s \$0.cursor.r;
#X connect 0 0 7 0;
#X connect 0 1 8 0;
#X connect 0 2 9 0;
#X connect 0 3 10 0;
#X connect 0 4 11 0;
#X connect 0 5 12 0;
#X connect 0 6 13 0;
#X connect 0 7 14 0;
#X connect 0 8 15 0;
#X connect 2 0 20 0;
#X connect 4 0 6 0;
#X connect 4 1 17 0;
#X connect 5 0 16 0;
#X connect 6 0 0 0;
#X connect 16 0 0 0;
#X connect 17 0 5 0;
#X connect 17 1 18 0;
#X connect 18 0 0 0;
#X connect 19 0 4 0;
#X connect 19 1 20 1;
#X connect 20 0 21 0;
#X connect 21 0 5 0;
#X connect 21 1 5 1;
#X connect 22 0 19 0;
#X connect 23 0 2 0;
#X connect 24 0 25 0;
#X connect 25 0 32 1;
#X connect 26 0 27 0;
#X connect 27 0 28 0;
#X connect 27 1 30 0;
#X connect 28 0 29 1;
#X connect 29 0 31 0;
#X connect 30 0 33 0;
#X connect 30 1 29 1;
#X connect 31 0 34 0;
#X connect 32 0 31 1;
#X connect 33 0 29 0;
#X connect 33 1 32 0;
#X connect 34 0 35 0;
#X coords 0 -1 1 1 218 16 2 30 30;
