#N canvas 353 106 465 453 10;
#X obj 17 13 einzelneR \$1 0 1;
#X obj 49 38 einzelneR \$1 1 2;
#X obj 88 62 einzelneR \$1 2 3;
#X obj 107 91 einzelneR \$1 3 4;
#X obj 185 149 einzelneR \$1 4 5;
#X obj 269 198 einzelneR \$1 6 7;
#X obj 308 226 einzelneR \$1 7 8;
#X obj 233 170 einzelneR \$1 5 6;
#X obj 12 305 metro 30;
#X obj 152 313 r click;
#X obj 152 335 route resize;
#X obj 152 357 + 1;
#X msg 152 379 resize \$1;
#X obj 149 261 table \$1.click;
#X obj 152 401 s \$1.click;
#X obj 12 263 r \$1.click.copy;
#X obj 12 327 t b b;
#X obj 12 398 tabwrite~ \$1.click;
#X obj 242 261 state.save.t \$1.click;
#X obj 39 373 tabplay~ click;
#X connect 8 0 16 0;
#X connect 9 0 10 0;
#X connect 10 0 11 0;
#X connect 11 0 12 0;
#X connect 12 0 14 0;
#X connect 15 0 8 0;
#X connect 16 0 17 0;
#X connect 16 1 19 0;
#X connect 19 0 17 0;
