#N canvas 687 120 302 229 10;
#X obj 23 106 until;
#X obj 23 127 list append;
#X obj 23 84 t b a;
#X obj 167 144 bang;
#X obj 23 59 inlet;
#X obj 23 171 outlet;
#X obj 126 23 loadbang;
#X obj 126 45 f \$1;
#X obj 126 67 sel 0;
#X obj 23 147 list split;
#X msg 126 91 1;
#X connect 0 0 1 0;
#X connect 1 0 9 0;
#X connect 2 0 0 0;
#X connect 2 1 1 1;
#X connect 3 0 0 1;
#X connect 4 0 2 0;
#X connect 6 0 7 0;
#X connect 7 0 8 0;
#X connect 8 0 10 0;
#X connect 8 1 9 1;
#X connect 9 0 5 0;
#X connect 9 1 1 1;
#X connect 9 2 3 0;
#X connect 10 0 9 1;
