#N canvas 687 120 308 299 10;
#X obj 23 127 list append;
#X obj 23 243 outlet;
#X obj 196 30 loadbang;
#X obj 196 52 f \$1;
#X obj 196 74 sel 0;
#X obj 23 213 list split;
#X msg 196 98 1;
#X obj 86 48 inlet;
#X obj 23 62 inlet;
#X obj 23 84 b;
#X obj 80 259 outlet;
#X obj 152 189 b;
#X obj 86 72 list prepend;
#X obj 86 97 t a a;
#X obj 80 237 t b b;
#X connect 0 0 5 0;
#X connect 2 0 3 0;
#X connect 3 0 4 0;
#X connect 4 0 6 0;
#X connect 4 1 5 1;
#X connect 5 0 1 0;
#X connect 5 1 13 0;
#X connect 5 2 14 0;
#X connect 6 0 5 1;
#X connect 7 0 12 0;
#X connect 8 0 9 0;
#X connect 9 0 0 0;
#X connect 11 0 13 0;
#X connect 12 0 13 0;
#X connect 13 0 0 1;
#X connect 13 1 12 1;
#X connect 14 0 10 0;
#X connect 14 1 11 0;
