#N canvas 449 154 1122 520 10;
#X obj 200 48 vsl 20 128 0 1.2 0 0 3041.master.mx.1 3041.master.mx.1
0 7 12 2 11 -220534 -128992 -1 10583 1;
#X obj 40 203 t f f;
#X obj 40 228 *;
#X obj 360 48 vsl 20 128 0 1.2 0 0 3041.master.mx.M 3041.master.mx.M
M 7 12 2 11 -166441 -262144 -1 8467 1;
#X obj 679 204 t f f;
#X obj 679 229 *;
#X obj 40 339 *;
#X obj 40 383 line~;
#X obj 22 457 dac~ 1;
#X obj 23 433 *~;
#X obj 122 203 t f f;
#X obj 122 228 *;
#X obj 122 337 *;
#X obj 122 383 line~;
#X obj 105 433 *~;
#X obj 204 203 t f f;
#X obj 204 228 *;
#X obj 204 337 *;
#X obj 204 383 line~;
#X obj 187 433 *~;
#X obj 286 206 t f f;
#X obj 286 231 *;
#X obj 286 337 *;
#X obj 286 383 line~;
#X obj 269 433 *~;
#X obj 368 203 t f f;
#X obj 368 228 *;
#X obj 368 337 *;
#X obj 368 383 line~;
#X obj 351 433 *~;
#X obj 450 203 t f f;
#X obj 450 228 *;
#X obj 450 337 *;
#X obj 450 383 line~;
#X obj 433 433 *~;
#X obj 532 203 t f f;
#X obj 532 228 *;
#X obj 532 337 *;
#X obj 532 383 line~;
#X obj 515 433 *~;
#X obj 614 203 t f f;
#X obj 614 228 *;
#X obj 614 337 *;
#X obj 614 383 line~;
#X obj 597 433 *~;
#X obj 104 457 dac~ 2;
#X obj 186 457 dac~ 3;
#X obj 268 457 dac~ 4;
#X obj 350 457 dac~ 5;
#X obj 514 457 dac~ 7;
#X obj 432 457 dac~ 6;
#X obj 596 457 dac~ 8;
#X msg 40 361 \$1 50;
#X msg 122 361 \$1 50;
#X msg 204 361 \$1 50;
#X msg 286 361 \$1 50;
#X msg 368 361 \$1 50;
#X msg 450 361 \$1 50;
#X msg 532 361 \$1 50;
#X msg 614 361 \$1 50;
#X obj 679 257 t b f;
#X obj 220 48 vsl 20 128 0 1.2 0 0 3041.master.mx.2 3041.master.mx.2
1 7 12 2 11 -262144 -128992 -1 10583 1;
#X obj 260 48 vsl 20 128 0 1.2 0 0 3041.master.mx.4 3041.master.mx.4
3 7 12 2 11 -262144 -128992 -1 10583 1;
#X obj 300 48 vsl 20 128 0 1.2 0 0 3041.master.mx.6 3041.master.mx.6
5 7 12 2 11 -262144 -128992 -1 10583 1;
#X obj 340 48 vsl 20 128 0 1.2 0 0 3041.master.mx.8 3041.master.mx.8
7 7 12 2 11 -262144 -128992 -1 10583 1;
#X obj 240 48 vsl 20 128 0 1.2 0 0 3041.master.mx.3 3041.master.mx.3
2 7 12 2 11 -220534 -128992 -1 10583 1;
#X obj 280 48 vsl 20 128 0 1.2 0 0 3041.master.mx.5 3041.master.mx.5
4 7 12 2 11 -220534 -128992 -1 10583 1;
#X obj 320 48 vsl 20 128 0 1.2 0 0 3041.master.mx.7 3041.master.mx.7
6 7 12 2 11 -220534 -128992 -1 10583 1;
#X msg 518 16 version 0 1 0;
#X text 518 40 2013 \, Roman Haefeli;
#X obj 760 24 r 3041.master.mx.1;
#X obj 760 45 r 3041.master.mx.2;
#X obj 760 66 r 3041.master.mx.3;
#X obj 760 87 r 3041.master.mx.4;
#X obj 760 108 r 3041.master.mx.5;
#X obj 760 129 r 3041.master.mx.6;
#X obj 760 150 r 3041.master.mx.7;
#X obj 760 171 r 3041.master.mx.8;
#X obj 760 192 r 3041.master.mx.M;
#X obj 726 344 loadbang;
#X msg 726 366 1;
#X msg 726 412 \; 3041.master.mx.\$1 \$2 \;;
#X msg 726 388 1 \$1 \, 2 \$1 \, 3 \$1 \, 4 \$1 \, 5 \$1 \, 6 \$1 \,
7 \$1 \, 8 \$1 \, list M 0.8;
#X obj 32 478 send~ dac1;
#X obj 124 479 send~ dac2;
#X obj 206 479 send~ dac3;
#X obj 289 479 send~ dac4;
#X obj 375 480 send~ dac5;
#X obj 467 481 send~ dac6;
#X obj 549 481 send~ dac7;
#X obj 632 481 send~ dac8;
#X obj 23 406 catch~ out0;
#X obj 105 406 catch~ out1;
#X obj 187 406 catch~ out2;
#X obj 269 406 catch~ out3;
#X obj 351 406 catch~ out4;
#X obj 433 406 catch~ out5;
#X obj 515 406 catch~ out6;
#X obj 597 406 catch~ out7;
#X connect 1 0 2 0;
#X connect 1 1 2 1;
#X connect 2 0 6 0;
#X connect 4 0 5 0;
#X connect 4 1 5 1;
#X connect 5 0 60 0;
#X connect 6 0 52 0;
#X connect 7 0 9 1;
#X connect 9 0 8 0;
#X connect 9 0 83 0;
#X connect 10 0 11 0;
#X connect 10 1 11 1;
#X connect 11 0 12 0;
#X connect 12 0 53 0;
#X connect 13 0 14 1;
#X connect 14 0 45 0;
#X connect 14 0 84 0;
#X connect 15 0 16 0;
#X connect 15 1 16 1;
#X connect 16 0 17 0;
#X connect 17 0 54 0;
#X connect 18 0 19 1;
#X connect 19 0 46 0;
#X connect 19 0 85 0;
#X connect 20 0 21 0;
#X connect 20 1 21 1;
#X connect 21 0 22 0;
#X connect 22 0 55 0;
#X connect 23 0 24 1;
#X connect 24 0 47 0;
#X connect 24 0 86 0;
#X connect 25 0 26 0;
#X connect 25 1 26 1;
#X connect 26 0 27 0;
#X connect 27 0 56 0;
#X connect 28 0 29 1;
#X connect 29 0 48 0;
#X connect 29 0 87 0;
#X connect 30 0 31 0;
#X connect 30 1 31 1;
#X connect 31 0 32 0;
#X connect 32 0 57 0;
#X connect 33 0 34 1;
#X connect 34 0 50 0;
#X connect 34 0 88 0;
#X connect 35 0 36 0;
#X connect 35 1 36 1;
#X connect 36 0 37 0;
#X connect 37 0 58 0;
#X connect 38 0 39 1;
#X connect 39 0 49 0;
#X connect 39 0 89 0;
#X connect 40 0 41 0;
#X connect 40 1 41 1;
#X connect 41 0 42 0;
#X connect 42 0 59 0;
#X connect 43 0 44 1;
#X connect 44 0 51 0;
#X connect 44 0 90 0;
#X connect 52 0 7 0;
#X connect 53 0 13 0;
#X connect 54 0 18 0;
#X connect 55 0 23 0;
#X connect 56 0 28 0;
#X connect 57 0 33 0;
#X connect 58 0 38 0;
#X connect 59 0 43 0;
#X connect 60 0 42 0;
#X connect 60 0 37 0;
#X connect 60 0 32 0;
#X connect 60 0 27 0;
#X connect 60 0 22 0;
#X connect 60 0 17 0;
#X connect 60 0 12 0;
#X connect 60 0 6 0;
#X connect 60 1 42 1;
#X connect 60 1 37 1;
#X connect 60 1 32 1;
#X connect 60 1 27 1;
#X connect 60 1 22 1;
#X connect 60 1 17 1;
#X connect 60 1 12 1;
#X connect 60 1 6 1;
#X connect 70 0 1 0;
#X connect 71 0 10 0;
#X connect 72 0 15 0;
#X connect 73 0 20 0;
#X connect 74 0 25 0;
#X connect 75 0 30 0;
#X connect 76 0 35 0;
#X connect 77 0 40 0;
#X connect 78 0 4 0;
#X connect 79 0 80 0;
#X connect 80 0 82 0;
#X connect 82 0 81 0;
#X connect 91 0 9 0;
#X connect 92 0 14 0;
#X connect 93 0 19 0;
#X connect 94 0 24 0;
#X connect 95 0 29 0;
#X connect 96 0 34 0;
#X connect 97 0 39 0;
#X connect 98 0 44 0;
#X coords 0 -1 1 1 180 149 1 200 30;
