#N canvas 609 52 533 286 10;
#N canvas 509 88 351 553 load.file 0;
#X obj 39 23 r \$0.loadfile;
#X obj 39 75 spigot 1;
#X obj 39 97 t b b b;
#X msg 135 86 0;
#X obj 58 120 del 200;
#X msg 135 110 1;
#X msg 106 173 color \$1 \$1 -1;
#X msg 106 144 10;
#X msg 145 142 1;
#X obj 39 218 openpanel;
#X obj 39 302 iemlib/soundfile_info;
#X msg 39 280 read \$1;
#X msg 58 414 \$3;
#X obj 58 436 s \$0.num_of_samples;
#X obj 90 405 s \$0.loadfile.r;
#X msg 39 462 symbol \$2;
#X obj 39 484 s \$0.filename;
#X obj 106 195 s \$0.loadfile.r;
#X obj 39 45 route 1;
#X msg 58 152 set 1;
#X obj 192 111 loadbang;
#X obj 100 218 r \$0.loadsoundfile;
#X obj 39 324 t a a b;
#X obj 39 250 t a a;
#X obj 90 361 symbol;
#X msg 90 383 label \$1;
#X connect 0 0 18 0;
#X connect 1 0 2 0;
#X connect 2 0 9 0;
#X connect 2 1 4 0;
#X connect 2 2 3 0;
#X connect 2 2 8 0;
#X connect 3 0 1 1;
#X connect 4 0 5 0;
#X connect 4 0 7 0;
#X connect 4 0 19 0;
#X connect 5 0 1 1;
#X connect 6 0 17 0;
#X connect 7 0 6 0;
#X connect 8 0 6 0;
#X connect 9 0 23 0;
#X connect 10 0 22 0;
#X connect 11 0 10 0;
#X connect 12 0 13 0;
#X connect 15 0 16 0;
#X connect 18 0 1 0;
#X connect 19 0 17 0;
#X connect 20 0 19 0;
#X connect 21 0 23 0;
#X connect 22 0 15 0;
#X connect 22 1 12 0;
#X connect 22 2 24 0;
#X connect 23 0 11 0;
#X connect 23 1 24 1;
#X connect 24 0 25 0;
#X connect 25 0 14 0;
#X restore 326 67 pd load.file;
#N canvas 472 267 279 382 sample.to.mm:ss.cc 0;
#X obj 78 80 samplerate~;
#X obj 78 101 / 100;
#X obj 21 127 /;
#X obj 78 57 loadbang;
#X obj 21 150 t a a a;
#X obj 78 185 / 100;
#X obj 78 207 mod 60;
#X obj 21 185 / 6000;
#X obj 21 207 int;
#X obj 78 250 makefilename %02d;
#X obj 21 270 makefilename %d;
#X obj 21 295 pack s s s;
#X msg 21 321 symbol \$1:\$2.\$3;
#X obj 21 16 r \$0.to.s2mmss;
#X obj 21 349 s \$0.from.s2mmss;
#X obj 138 185 mod 100;
#X obj 138 209 makefilename %02d;
#X connect 0 0 1 0;
#X connect 1 0 2 1;
#X connect 2 0 4 0;
#X connect 3 0 0 0;
#X connect 4 0 7 0;
#X connect 4 1 5 0;
#X connect 4 2 15 0;
#X connect 5 0 6 0;
#X connect 6 0 9 0;
#X connect 7 0 8 0;
#X connect 8 0 10 0;
#X connect 9 0 11 1;
#X connect 10 0 11 0;
#X connect 11 0 12 0;
#X connect 12 0 14 0;
#X connect 13 0 2 0;
#X connect 15 0 16 0;
#X connect 16 0 11 2;
#X restore 326 89 pd sample.to.mm:ss.cc;
#X obj 23 53 hsl 239 15 0 1 0 0 \$0.starttime \$0.starttime 0:00.00
186 8 0 10 -262144 -166441 -1 0 1;
#X obj 23 76 hsl 239 15 0 1 0 0 \$0.stoptime \$0.stoptime 0:00.00 186
8 0 10 -262144 -166441 -1 0 1;
#X obj 23 91 hsl 40 14 1 1 0 0 \$0.start \$0.start.r start 4 7 0 10
-195568 -195568 -1 0 1;
#X obj 68 91 hsl 40 14 1 1 0 0 \$0.stop \$0.stop.r stop 7 7 0 10 -195568
-195568 -1 0 1;
#X obj 203 91 hsl 59 14 1 1 0 0 \$0.bli \$0.loop.length 0:00.00 6 8
0 10 -195568 -195568 -1 0 1;
#X obj 23 68 hsl 239 8 0 1 0 0 \$0.bla \$0.cursor empty 8 8 0 10 -233017
-233017 -1 0 1;
#X obj 127 91 hsl 71 14 0 10 0 0 \$0.wait \$0.wait.r 0s 5 7 0 10 -228856
-258113 -1 0 1;
#X obj 23 38 hsl 239 15 0 2 0 0 \$0.loadfile \$0.loadfile.r <no_soundfile>
2 8 0 10 -233017 -233017 -1 11900 1;
#X msg 28 128 version 0 1 0;
#X text 27 148 2013 \, Roman Haefeli;
#N canvas 311 270 421 276 start.positions 0;
#N canvas 440 301 174 149 s2mmss 0;
#X obj 45 54 s \$0.to.s2mmss;
#X obj 45 74 r \$0.from.s2mmss;
#X obj 15 33 t b a;
#X obj 15 95 list;
#X obj 15 12 inlet;
#X obj 15 116 outlet;
#X connect 1 0 3 1;
#X connect 2 0 3 0;
#X connect 2 1 0 0;
#X connect 3 0 5 0;
#X connect 4 0 2 0;
#X restore 134 142 pd s2mmss;
#X obj 126 18 r \$0.num_of_samples;
#X obj 25 36 route float;
#X msg 134 163 label \$1;
#X obj 126 42 t b a;
#X obj 25 84 *;
#X obj 25 110 t a a;
#X obj 25 185 s \$0.startsamples;
#X msg 126 64 0;
#X obj 25 14 r \$0.starttime;
#X obj 134 185 s \$0.starttime;
#X obj 126 86 s \$0.starttime;
#X connect 0 0 3 0;
#X connect 1 0 4 0;
#X connect 2 0 5 0;
#X connect 3 0 10 0;
#X connect 4 0 8 0;
#X connect 4 1 5 1;
#X connect 5 0 6 0;
#X connect 6 0 7 0;
#X connect 6 1 0 0;
#X connect 8 0 11 0;
#X connect 9 0 2 0;
#X restore 326 111 pd start.positions;
#N canvas 311 270 353 253 stop.positions 0;
#N canvas 440 301 174 149 s2mmss 0;
#X obj 45 54 s \$0.to.s2mmss;
#X obj 45 74 r \$0.from.s2mmss;
#X obj 15 33 t b a;
#X obj 15 95 list;
#X obj 15 12 inlet;
#X obj 15 116 outlet;
#X connect 1 0 3 1;
#X connect 2 0 3 0;
#X connect 2 1 0 0;
#X connect 3 0 5 0;
#X connect 4 0 2 0;
#X restore 134 142 pd s2mmss;
#X obj 126 18 r \$0.num_of_samples;
#X obj 25 36 route float;
#X msg 134 163 label \$1;
#X obj 126 42 t b a;
#X obj 25 84 *;
#X obj 25 110 t a a;
#X obj 25 185 s \$0.stopsamples;
#X msg 126 64 1;
#X obj 25 14 r \$0.stoptime;
#X obj 134 185 s \$0.stoptime;
#X obj 126 86 s \$0.stoptime;
#X connect 0 0 3 0;
#X connect 1 0 4 0;
#X connect 2 0 5 0;
#X connect 3 0 10 0;
#X connect 4 0 8 0;
#X connect 4 1 5 1;
#X connect 5 0 6 0;
#X connect 6 0 7 0;
#X connect 6 1 0 0;
#X connect 8 0 11 0;
#X connect 9 0 2 0;
#X restore 326 133 pd stop.positions;
#N canvas 897 184 410 270 mutual.logic 0;
#X obj 46 166 sel 1;
#X obj 46 188 f;
#X obj 169 52 route float;
#X obj 46 54 route float;
#X obj 46 105 t a a;
#X obj 169 166 sel 1;
#X obj 169 188 f;
#X obj 169 105 t a a;
#X obj 46 144 >;
#X obj 169 144 <;
#X obj 46 32 r \$0.starttime;
#X obj 169 30 r \$0.stoptime;
#X obj 46 210 s \$0.stoptime;
#X obj 169 210 s \$0.starttime;
#X connect 0 0 1 0;
#X connect 1 0 12 0;
#X connect 2 0 7 0;
#X connect 2 0 8 1;
#X connect 3 0 4 0;
#X connect 3 0 9 1;
#X connect 4 0 8 0;
#X connect 4 1 1 1;
#X connect 5 0 6 0;
#X connect 6 0 13 0;
#X connect 7 0 9 0;
#X connect 7 1 6 1;
#X connect 8 0 0 0;
#X connect 9 0 5 0;
#X connect 10 0 3 0;
#X connect 11 0 2 0;
#X restore 326 155 pd mutual.logic;
#N canvas 220 301 261 325 length.display 0;
#N canvas 440 323 174 149 s2mmss 0;
#X obj 45 54 s \$0.to.s2mmss;
#X obj 45 74 r \$0.from.s2mmss;
#X obj 15 33 t b a;
#X obj 15 95 list;
#X obj 15 12 inlet;
#X obj 15 116 outlet;
#X connect 1 0 3 1;
#X connect 2 0 3 0;
#X connect 2 1 0 0;
#X connect 3 0 5 0;
#X connect 4 0 2 0;
#X restore 72 212 pd s2mmss;
#X obj 70 129 r \$0.num_of_samples;
#X obj 27 140 -;
#X obj 48 98 t b a;
#X obj 27 162 *;
#X msg 72 234 label \$1;
#X obj 72 256 s \$0.loop.length;
#X obj 27 31 route float;
#X obj 48 75 route float;
#X obj 27 184 t a a;
#X obj 27 277 s \$0.lengthsamples;
#X obj 27 9 r \$0.stoptime;
#X obj 48 53 r \$0.starttime;
#X connect 0 0 5 0;
#X connect 1 0 4 1;
#X connect 2 0 4 0;
#X connect 3 0 2 0;
#X connect 3 1 2 1;
#X connect 4 0 9 0;
#X connect 5 0 6 0;
#X connect 7 0 2 0;
#X connect 8 0 3 0;
#X connect 9 0 10 0;
#X connect 9 1 0 0;
#X connect 11 0 7 0;
#X connect 12 0 8 0;
#X restore 326 176 pd length.display;
#N canvas 470 133 503 515 player 0;
#N canvas 512 273 313 215 start.button 0;
#X obj 21 38 spigot 1;
#X obj 21 60 t b b b;
#X msg 117 49 0;
#X obj 40 83 del 200;
#X msg 117 73 1;
#X msg 88 136 color \$1 \$1 -1;
#X msg 127 105 1;
#X obj 21 16 r \$0.start;
#X obj 88 158 s \$0.start.r;
#X msg 88 107 20;
#X obj 21 155 outlet;
#X connect 0 0 1 0;
#X connect 1 0 10 0;
#X connect 1 1 3 0;
#X connect 1 2 2 0;
#X connect 1 2 6 0;
#X connect 2 0 0 1;
#X connect 3 0 4 0;
#X connect 3 0 9 0;
#X connect 4 0 0 1;
#X connect 5 0 8 0;
#X connect 6 0 5 0;
#X connect 7 0 0 0;
#X connect 9 0 5 0;
#X restore 19 22 pd start.button;
#N canvas 512 267 313 215 stop.button 0;
#X obj 21 38 spigot 1;
#X obj 21 60 t b b b;
#X msg 117 49 0;
#X obj 40 83 del 200;
#X msg 117 73 1;
#X msg 88 136 color \$1 \$1 -1;
#X msg 127 105 1;
#X msg 88 107 20;
#X obj 21 155 outlet;
#X obj 21 16 r \$0.stop;
#X obj 88 158 s \$0.stop.r;
#X connect 0 0 1 0;
#X connect 1 0 8 0;
#X connect 1 1 3 0;
#X connect 1 2 2 0;
#X connect 1 2 6 0;
#X connect 2 0 0 1;
#X connect 3 0 4 0;
#X connect 3 0 7 0;
#X connect 4 0 0 1;
#X connect 5 0 10 0;
#X connect 6 0 5 0;
#X connect 7 0 5 0;
#X connect 9 0 0 0;
#X restore 134 133 pd stop.button;
#X obj 19 73 list append;
#X obj 82 49 r \$0.filename;
#X obj 82 105 r \$0.startsamples;
#X obj 19 129 list append;
#X msg 161 177 0;
#X msg 46 172 open \$1 \$2;
#X obj 19 151 t b a;
#X obj 19 205 t a a;
#X msg 19 173 1;
#X obj 46 232 s \$0.running;
#X obj 19 291 outlet~;
#X obj 335 62 r \$0.lengthsamples;
#X obj 350 117 samplerate~;
#X obj 350 93 loadbang;
#X obj 335 141 /;
#X obj 335 163 * 1000;
#X obj 335 198 s \$0.lengthms;
#X obj 235 227 del;
#X obj 235 135 r \$0.running;
#X obj 235 157 sel 1 0;
#X msg 254 183 stop;
#X obj 236 276 r \$0.running;
#X obj 236 330 spigot 0;
#X obj 299 326 r \$0.loop;
#X obj 236 408 del 10;
#X obj 299 349 r \$0.wait;
#X obj 299 371 * 1000;
#X obj 236 298 sel 0;
#X obj 134 155 t b b;
#X msg 193 329 stop;
#X obj 66 329 r \$0.wait;
#X obj 66 373 int;
#X msg 66 417 label \$1s;
#X obj 66 439 s \$0.wait.r;
#X obj 66 351 * 10;
#X obj 66 395 / 10;
#X obj 299 392 max 0.01;
#X obj 236 430 s \$0.again;
#X obj 116 22 r \$0.again;
#X obj 19 260 readsf~ 2 200000;
#X obj 70 291 outlet~;
#X connect 0 0 2 0;
#X connect 0 0 31 0;
#X connect 1 0 30 0;
#X connect 2 0 5 0;
#X connect 3 0 2 1;
#X connect 4 0 5 1;
#X connect 5 0 8 0;
#X connect 6 0 9 0;
#X connect 7 0 41 0;
#X connect 8 0 10 0;
#X connect 8 1 7 0;
#X connect 9 0 41 0;
#X connect 9 1 11 0;
#X connect 10 0 9 0;
#X connect 13 0 16 0;
#X connect 14 0 16 1;
#X connect 15 0 14 0;
#X connect 16 0 17 0;
#X connect 17 0 18 0;
#X connect 17 0 19 1;
#X connect 19 0 6 0;
#X connect 20 0 21 0;
#X connect 21 0 19 0;
#X connect 21 1 22 0;
#X connect 22 0 19 0;
#X connect 23 0 29 0;
#X connect 24 0 26 0;
#X connect 25 0 24 1;
#X connect 26 0 39 0;
#X connect 27 0 28 0;
#X connect 28 0 38 0;
#X connect 29 0 24 0;
#X connect 30 0 31 0;
#X connect 30 1 6 0;
#X connect 31 0 26 0;
#X connect 32 0 36 0;
#X connect 33 0 37 0;
#X connect 34 0 35 0;
#X connect 36 0 33 0;
#X connect 37 0 34 0;
#X connect 38 0 26 1;
#X connect 40 0 2 0;
#X connect 41 0 12 0;
#X connect 41 1 42 0;
#X restore 326 228 pd player;
#X obj 326 250 outlet~;
#X msg 34 208 label <no_soundfile>;
#X obj 34 230 s \$0.loadfile.r;
#N canvas 733 311 380 323 cursor.display 0;
#X obj 26 12 r \$0.running;
#X obj 213 63 s \$0.cursor;
#X msg 213 40 color 10 \$1 -1;
#X obj 26 34 t a a;
#X obj 213 17 + 10;
#X obj 26 67 sel 1;
#X obj 26 111 list append;
#X obj 26 165 list append;
#X obj 89 91 route float;
#X obj 107 141 route float;
#X obj 26 191 list append;
#X msg 26 233 \$1 \, \$2 \$3;
#X obj 26 255 line 0 20;
#X obj 26 277 s \$0.cursor;
#X obj 169 221 r \$0.lengthms;
#X obj 89 69 r \$0.starttime;
#X obj 107 119 r \$0.stoptime;
#X connect 0 0 3 0;
#X connect 2 0 1 0;
#X connect 3 0 5 0;
#X connect 3 1 4 0;
#X connect 4 0 2 0;
#X connect 5 0 6 0;
#X connect 6 0 7 0;
#X connect 7 0 10 0;
#X connect 8 0 6 1;
#X connect 9 0 7 1;
#X connect 10 0 11 0;
#X connect 11 0 12 0;
#X connect 12 0 13 0;
#X connect 14 0 10 1;
#X connect 15 0 8 0;
#X connect 16 0 9 0;
#X restore 326 199 pd cursor.display;
#X obj 110 91 tgl 14 0 \$0.loop \$0.loop.r empty 17 7 0 10 -228856
-258113 -1 0 1;
#N canvas 753 100 612 405 methods 0;
#X obj 6 12 inlet;
#X obj 6 33 s \$0.inlet;
#X obj 9 83 r \$0.inlet;
#X obj 9 105 route load;
#X obj 9 126 list;
#X text 9 65 load <filename>;
#X obj 9 148 s \$0.loadsoundfile;
#X text 156 59 start;
#X obj 153 83 r \$0.inlet;
#X obj 153 105 route start;
#X obj 153 126 b;
#X obj 153 148 s \$0.start.r;
#X obj 261 84 r \$0.inlet;
#X obj 261 127 b;
#X text 264 60 stop;
#X obj 261 106 route stop;
#X obj 261 149 s \$0.stop.r;
#X obj 12 198 r \$0.inlet;
#X text 12 180 loop 0|1;
#X obj 12 220 route loop;
#X obj 12 242 route float;
#X obj 12 263 s \$0.loop.r;
#X obj 116 198 r \$0.inlet;
#X obj 116 242 route float;
#X text 116 180 wait <seconds>;
#X obj 116 263 s \$0.wait.r;
#X obj 116 220 route wait;
#X obj 272 199 r \$0.inlet;
#X obj 272 221 route starttime;
#X text 271 180 starttime <seconds>;
#X obj 380 226 loadbang;
#X obj 380 255 samplerate~;
#X obj 272 243 *;
#X obj 380 279 r \$0.num_of_samples;
#X obj 272 301 /;
#X obj 272 359 s \$0.starttime;
#X obj 466 199 r \$0.inlet;
#X obj 466 243 *;
#X obj 466 311 /;
#X text 465 180 stoptime <seconds>;
#X obj 466 221 route stoptime;
#X obj 466 357 s \$0.stoptime;
#X obj 272 334 clip 0 1;
#X obj 466 334 clip 0 1;
#X connect 0 0 1 0;
#X connect 2 0 3 0;
#X connect 3 0 4 0;
#X connect 4 0 6 0;
#X connect 8 0 9 0;
#X connect 9 0 10 0;
#X connect 10 0 11 0;
#X connect 12 0 15 0;
#X connect 13 0 16 0;
#X connect 15 0 13 0;
#X connect 17 0 19 0;
#X connect 19 0 20 0;
#X connect 20 0 21 0;
#X connect 22 0 26 0;
#X connect 23 0 25 0;
#X connect 26 0 23 0;
#X connect 27 0 28 0;
#X connect 28 0 32 0;
#X connect 30 0 31 0;
#X connect 31 0 32 1;
#X connect 31 0 37 1;
#X connect 32 0 34 0;
#X connect 33 0 34 1;
#X connect 33 0 38 1;
#X connect 34 0 42 0;
#X connect 36 0 40 0;
#X connect 37 0 38 0;
#X connect 38 0 43 0;
#X connect 40 0 37 0;
#X connect 42 0 35 0;
#X connect 43 0 41 0;
#X restore 326 37 pd methods;
#X obj 326 14 inlet;
#X obj 377 250 outlet~;
#X connect 16 0 17 0;
#X connect 16 1 24 0;
#X connect 18 0 19 0;
#X connect 23 0 22 0;
#X coords 0 -1 1 1 244 85 1 20 20;
