#N canvas 99 272 450 300 10;
#X obj 158 57 samplerate~;
#X obj 158 79 / 1000;
#X obj 30 60 *;
#X obj 158 33 loadbang;
#X obj 30 245 outlet~;
#X obj 30 9 inlet;
#X obj 30 31 unpack f f;
#X obj 87 60 *;
#X obj 30 84 pack f f;
#X obj 30 199 tabplay~ Kollektivgedächtnis;
#X obj 30 106 t a a;
#X msg 75 128 \$2 \$1;
#X obj 75 150 -;
#X obj 30 174 pack f f;
#X msg 30 128 \$1;
#X connect 0 0 1 0;
#X connect 1 0 7 1;
#X connect 1 0 2 1;
#X connect 2 0 8 0;
#X connect 3 0 0 0;
#X connect 5 0 6 0;
#X connect 6 0 2 0;
#X connect 6 1 7 0;
#X connect 7 0 8 1;
#X connect 8 0 10 0;
#X connect 9 0 4 0;
#X connect 10 0 14 0;
#X connect 10 1 11 0;
#X connect 11 0 12 0;
#X connect 12 0 13 1;
#X connect 13 0 9 0;
#X connect 14 0 13 0;
