#N canvas 747 230 394 357 10;
#X obj 32 321 outlet~;
#X obj 30 9 inlet;
#X obj 30 227 vline~;
#X obj 30 31 t a a;
#N canvas 727 277 240 184 convert.ms.to.samples 0;
#X obj 132 79 samplerate~;
#X obj 132 101 / 1000;
#X obj 30 86 *;
#X obj 132 55 loadbang;
#X obj 30 57 unpack f f;
#X obj 87 86 *;
#X obj 30 110 pack f f;
#X obj 30 20 inlet;
#X obj 30 132 outlet;
#X connect 0 0 1 0;
#X connect 1 0 5 1;
#X connect 1 0 2 1;
#X connect 2 0 6 0;
#X connect 3 0 0 0;
#X connect 4 0 2 0;
#X connect 4 1 5 0;
#X connect 5 0 6 1;
#X connect 6 0 8 0;
#X connect 7 0 4 0;
#X restore 30 62 pd convert.ms.to.samples;
#X msg 93 85 \$2 \$1;
#X obj 93 107 -;
#X obj 30 180 list append;
#X msg 30 202 \$1 \, \$2 \$3;
#X obj 31 274 *~;
#X obj 175 226 vline~;
#X obj 31 252 tabread4~ Kollektivgedächtnis;
#N canvas 747 342 203 259 randomize 0;
#X obj 9 21 inlet;
#X obj 9 165 outlet;
#X obj 9 43 t a b;
#X obj 36 67 random 1000;
#X obj 9 142 +;
#X obj 36 89 / 50;
#X obj 36 111 - 10;
#X connect 0 0 2 0;
#X connect 2 0 4 0;
#X connect 2 1 3 0;
#X connect 3 0 5 0;
#X connect 4 0 1 0;
#X connect 5 0 6 0;
#X connect 6 0 4 1;
#X restore 93 130 pd randomize;
#X obj 201 57 r pitch;
#X obj 186 99 * 1;
#X obj 175 159 - 80;
#X obj 175 181 pack f f;
#X msg 175 204 0 \, \$2 5 \, 0 40 \$1;
#X obj 244 98 r mengenvolumen;
#X obj 244 120 t a a;
#X obj 244 142 *;
#X connect 1 0 3 0;
#X connect 2 0 11 0;
#X connect 3 0 4 0;
#X connect 3 1 5 0;
#X connect 4 0 7 0;
#X connect 5 0 6 0;
#X connect 6 0 14 0;
#X connect 7 0 8 0;
#X connect 8 0 2 0;
#X connect 9 0 0 0;
#X connect 10 0 9 1;
#X connect 11 0 9 0;
#X connect 12 0 7 1;
#X connect 12 0 15 0;
#X connect 13 0 14 1;
#X connect 14 0 12 0;
#X connect 15 0 16 0;
#X connect 16 0 17 0;
#X connect 17 0 10 0;
#X connect 18 0 19 0;
#X connect 19 0 20 0;
#X connect 19 1 20 1;
#X connect 20 0 16 1;
