#N canvas 384 156 363 288 10;
#X obj 18 221 line 0 20;
#X obj 18 243 outlet;
#X obj 20 34 tgl 14 0 \$0.startstop \$0.bli empty 17 7 0 10 -228856
-258113 -1 0 1;
#X obj 18 78 r \$0.startstop;
#X obj 18 125 list append \$1 \$2 \$3;
#X msg 18 195 \$1 \, \$2 \$3;
#X obj 18 101 metro \$3;
#X obj 49 34 cnv 12 30 13 empty empty empty 20 12 0 14 -233017 -66577
0;
#X obj 34 34 tgl 14 0 \$0.updown \$0.updown.r >>> 17 7 0 10 -228856
-258113 -1 0 1;
#X obj 18 147 list prepend 0;
#X obj 18 169 route 0 1;
#X msg 84 195 \$2 \, \$1 \$3;
#X obj 202 67 r \$0.updown;
#X obj 202 89 t a a;
#X obj 229 114 sel 0 1;
#X msg 229 141 >>>;
#X msg 258 142 <<<;
#X obj 229 163 list;
#X msg 229 185 label \$1;
#X obj 229 207 s \$0.updown.r;
#X connect 0 0 1 0;
#X connect 3 0 6 0;
#X connect 4 0 9 0;
#X connect 5 0 0 0;
#X connect 6 0 4 0;
#X connect 9 0 10 0;
#X connect 10 0 5 0;
#X connect 10 1 11 0;
#X connect 11 0 0 0;
#X connect 12 0 13 0;
#X connect 13 0 9 1;
#X connect 13 1 14 0;
#X connect 14 0 15 0;
#X connect 14 1 16 0;
#X connect 15 0 17 0;
#X connect 16 0 17 0;
#X connect 17 0 18 0;
#X connect 18 0 19 0;
#X coords 0 -1 1 1 60 28 1 20 20;
