#N canvas 68 394 470 382 10;
#X obj 85 257 throw~ out3;
#X obj 167 247 throw~ out5;
#X obj 265 272 throw~ out7;
#X obj 167 222 hip~ 400;
#X obj 265 250 hip~ 2000;
#X obj 30 193 lop~;
#X obj 30 218 lop~;
#X obj 30 241 lop~;
#X obj 30 263 lop~;
#X floatatom 211 142 10 0 0 0 - - -;
#X obj 23 44 hsl 95 10 20 20000 1 0 empty empty lop 8 5 0 10 -262144
-258113 -1 0 1;
#X obj 30 115 inlet~;
#X obj 23 34 hsl 95 10 0 1 0 0 empty empty vol 8 5 0 10 -262144 -258113
-1 7520 1;
#X obj 126 57 t f f;
#X obj 126 82 *;
#X obj 30 297 delwrite~ \$0.delay 10000;
#X obj 167 198 delread~ \$0.delay 841;
#X obj 265 227 delread~ \$0.delay 1682;
#X msg 126 105 \$1 100;
#X obj 126 129 line~;
#X obj 30 161 *~;
#X obj 263 40 loadbang;
#X msg 291 89 20000;
#X msg 264 86 0;
#X connect 3 0 1 0;
#X connect 4 0 2 0;
#X connect 5 0 6 0;
#X connect 6 0 7 0;
#X connect 7 0 8 0;
#X connect 8 0 0 0;
#X connect 8 0 15 0;
#X connect 9 0 5 1;
#X connect 9 0 6 1;
#X connect 9 0 7 1;
#X connect 9 0 8 1;
#X connect 10 0 9 0;
#X connect 11 0 20 0;
#X connect 12 0 13 0;
#X connect 13 0 14 0;
#X connect 13 1 14 1;
#X connect 14 0 18 0;
#X connect 16 0 3 0;
#X connect 17 0 4 0;
#X connect 18 0 19 0;
#X connect 19 0 20 1;
#X connect 20 0 5 0;
#X connect 21 0 23 0;
#X connect 21 0 22 0;
#X connect 22 0 10 0;
#X connect 23 0 12 0;
#X coords 0 -1 1 1 100 34 1 20 20;
