#N canvas 499 83 460 511 10;
#X obj 155 432 tabplay~;
#X msg 155 399 set \$1.click \, bang;
#X obj 92 260 t b a;
#X obj 92 335 del;
#X obj 42 64 t a a;
#X obj 155 376 f;
#X msg 254 279 \$1;
#X obj 92 237 list append;
#X obj 42 144 f;
#X obj 42 186 sel 0;
#X obj 106 150 - 1;
#X obj 92 216 b;
#X obj 190 259 b;
#X obj 42 166 t a a;
#X obj 42 37 inlet;
#X obj 156 466 throw~ out1;
#X obj 42 425 outlet;
#X obj 42 97 list split 2;
#X msg 42 119 \$2;
#X text 286 9 format:;
#X text 294 27 arg1: click type;
#X text 295 42 arg2: pattern repeats;
#X text 294 115 arg7: ...;
#X text 294 130 arg8: ...;
#X obj 92 284 list.repack 2;
#X obj 92 306 unpack f f;
#X text 294 57 arg3: interval (ms);
#X text 294 72 arg4: speaker id;
#X text 294 102 arg6: speaker id;
#X text 294 86 arg5: interval (ms);
#X obj 136 335 t b b b;
#X obj 279 378 f;
#X msg 279 401 set out\$1;
#X connect 0 0 15 0;
#X connect 1 0 0 0;
#X connect 2 0 24 0;
#X connect 2 1 24 1;
#X connect 3 0 30 0;
#X connect 4 0 17 0;
#X connect 4 1 6 0;
#X connect 5 0 1 0;
#X connect 6 0 5 1;
#X connect 7 0 2 0;
#X connect 8 0 13 0;
#X connect 9 0 16 0;
#X connect 9 1 11 0;
#X connect 10 0 8 1;
#X connect 11 0 7 0;
#X connect 12 0 8 0;
#X connect 13 0 9 0;
#X connect 13 1 10 0;
#X connect 14 0 4 0;
#X connect 17 0 18 0;
#X connect 17 1 7 1;
#X connect 18 0 8 0;
#X connect 24 0 25 0;
#X connect 24 1 12 0;
#X connect 25 0 3 0;
#X connect 25 1 31 1;
#X connect 30 0 24 0;
#X connect 30 1 5 0;
#X connect 30 2 31 0;
#X connect 31 0 32 0;
#X connect 32 0 15 0;
