#N canvas 499 83 394 479 10;
#X obj 163 395 tabplay~;
#X msg 163 362 set \$1.click \, bang;
#X obj 42 97 list split 3;
#X obj 92 284 list.repack;
#X obj 92 260 t b a;
#X obj 92 315 del;
#X obj 136 315 t b b;
#X obj 42 64 t a a;
#X obj 163 339 f;
#X obj 226 260 t a a;
#X msg 226 291 \$1;
#X obj 92 237 list append;
#X obj 42 144 f;
#X obj 42 186 sel 0;
#X obj 106 150 - 1;
#X obj 92 216 b;
#X msg 42 119 \$3;
#X obj 190 259 b;
#X obj 42 166 t a a;
#X obj 42 37 inlet;
#X msg 253 291 set out\$2;
#X obj 164 429 throw~ out1;
#X obj 42 425 outlet;
#X connect 0 0 21 0;
#X connect 1 0 0 0;
#X connect 2 0 16 0;
#X connect 2 1 11 1;
#X connect 3 0 5 0;
#X connect 3 1 17 0;
#X connect 4 0 3 0;
#X connect 4 1 3 1;
#X connect 5 0 6 0;
#X connect 6 0 3 0;
#X connect 6 1 8 0;
#X connect 7 0 2 0;
#X connect 7 1 9 0;
#X connect 8 0 1 0;
#X connect 9 0 10 0;
#X connect 9 1 20 0;
#X connect 10 0 8 1;
#X connect 11 0 4 0;
#X connect 12 0 18 0;
#X connect 13 0 22 0;
#X connect 13 1 15 0;
#X connect 14 0 12 1;
#X connect 15 0 11 0;
#X connect 16 0 12 0;
#X connect 17 0 12 0;
#X connect 18 0 13 0;
#X connect 18 1 14 0;
#X connect 19 0 7 0;
#X connect 20 0 21 0;
