#N canvas 237 44 972 819 10;
#X obj 203 516 hsl 328 20 0 9 0 0 \$0.spatial.S \$0.spatial.S empty
-2 -8 0 10 -166441 -262144 -1 9519 1;
#X obj 18 299 max 0;
#X obj 18 322 min 2;
#X obj 18 344 * 512;
#N canvas 361 452 299 248 create_sine 0;
#X obj 19 9 loadbang;
#X obj 87 106 s \$0-sine;
#X obj 19 31 t b b;
#X obj 19 53 outlet;
#X msg 87 79 sinesum 2048 1;
#X connect 0 0 2 0;
#X connect 2 0 3 0;
#X connect 2 1 4 0;
#X connect 4 0 1 0;
#X restore 595 17 pd create_sine;
#X obj 605 46 table \$0-sine 1025;
#X obj 127 344 * 512;
#X obj 236 299 max 0;
#X obj 236 322 min 2;
#X obj 236 344 * 512;
#X obj 345 344 * 512;
#X obj 454 299 max 0;
#X obj 454 322 min 2;
#X obj 454 344 * 512;
#X obj 563 344 * 512;
#X obj 672 299 max 0;
#X obj 672 322 min 2;
#X obj 672 344 * 512;
#X obj 781 344 * 512;
#X obj 127 299 max 0;
#X obj 127 322 min 2;
#X obj 345 299 max 0;
#X obj 345 322 min 2;
#X obj 563 299 max 0;
#X obj 563 322 min 2;
#X obj 781 299 max 0;
#X obj 781 322 min 2;
#X obj 127 272 - 1;
#X obj 236 273 - 2;
#X obj 345 274 - 3;
#X obj 454 275 - 4;
#X obj 563 270 - 5;
#X obj 672 271 - 6;
#X obj 781 209 - 7;
#X obj 96 201 wrap;
#X obj 96 221 * 8;
#X obj 781 253 wrap;
#X obj 781 274 * 8;
#X obj 781 228 / 8;
#X obj 18 454 line~;
#X msg 18 430 \$1 20;
#X obj 2 476 *~;
#X obj 127 456 line~;
#X msg 127 432 \$1 20;
#X obj 111 478 *~;
#X obj 236 454 line~;
#X msg 236 430 \$1 20;
#X obj 220 476 *~;
#X obj 345 454 line~;
#X msg 345 430 \$1 20;
#X obj 328 472 *~;
#X obj 454 454 line~;
#X msg 454 430 \$1 20;
#X obj 438 476 *~;
#X obj 563 456 line~;
#X msg 563 432 \$1 20;
#X obj 547 478 *~;
#X obj 672 454 line~;
#X msg 672 430 \$1 20;
#X obj 656 476 *~;
#X obj 781 454 line~;
#X msg 781 430 \$1 20;
#X obj 765 476 *~;
#X obj 39 13 inlet~;
#X obj 39 116 send~ \$0-in;
#X obj 438 783 throw~ out5;
#X obj 547 782 throw~ out6;
#X obj 656 780 throw~ out7;
#X obj 765 780 throw~ out8;
#X obj 3 781 throw~ out1;
#X obj 112 781 throw~ out2;
#X obj 220 781 throw~ out3;
#X obj 329 781 throw~ out3;
#X obj 1 403 r~ \$0-in;
#X obj 110 405 r~ \$0-in;
#X obj 219 403 r~ \$0-in;
#X obj 328 403 r~ \$0-in;
#X obj 437 403 r~ \$0-in;
#X obj 546 405 r~ \$0-in;
#X obj 655 403 r~ \$0-in;
#X obj 764 403 r~ \$0-in;
#X obj 315 133 wrap;
#X obj 96 180 / 8;
#X obj 315 155 * 8;
#X obj 315 113 / 8;
#X obj 516 537 cnv 12 16 12 empty empty empty 20 12 0 14 -128992 -66577
0;
#X obj 201 537 cnv 12 17 12 empty empty empty 20 12 0 14 -128992 -66577
0;
#X obj 219 537 cnv 13 37 13 empty empty empty 20 12 0 14 -220534 -66577
0;
#X obj 293 537 cnv 13 37 13 empty empty empty 20 12 0 14 -220534 -66577
0;
#X obj 367 537 cnv 13 37 13 empty empty empty 20 12 0 14 -220534 -66577
0;
#X obj 441 537 cnv 13 37 13 empty empty empty 20 12 0 14 -220534 -66577
0;
#X obj 755 24 inlet;
#N canvas 477 101 317 333 set.sequence 0;
#X obj 16 20 inlet;
#X obj 16 66 unpack f f f f f f f f;
#X obj 145 95 s \$0.spatial.8;
#X obj 126 117 s \$0.spatial.7;
#X obj 108 139 s \$0.spatial.6;
#X obj 89 160 s \$0.spatial.5;
#X obj 71 181 s \$0.spatial.4;
#X obj 52 202 s \$0.spatial.3;
#X obj 34 224 s \$0.spatial.2;
#X obj 16 247 s \$0.spatial.1;
#X connect 0 0 1 0;
#X connect 1 0 9 0;
#X connect 1 1 8 0;
#X connect 1 2 7 0;
#X connect 1 3 6 0;
#X connect 1 4 5 0;
#X connect 1 5 4 0;
#X connect 1 6 3 0;
#X connect 1 7 2 0;
#X restore 755 165 pd set.sequence;
#X obj 403 500 hsl 128 16 0 1 0 0 \$0.spatial.V \$0.spatial.V empty
-2 -8 0 10 -220534 -258113 -1 10160 1;
#X obj 98 28 t f f;
#X obj 98 49 *;
#X msg 98 69 \$1 50;
#X obj 98 89 line~;
#X obj 39 81 *~;
#N canvas 1095 351 261 267 gui-stuff 0;
#X msg 61 183 set \$1;
#X obj 106 93 > 8.5;
#X obj 106 115 sel 1;
#X obj 61 114 sel 1;
#X obj 61 92 < 0.5;
#X obj 61 55 route float;
#X obj 61 30 r \$0.spatial.S;
#X obj 61 206 s \$0.spatial.S;
#X obj 61 136 del 0;
#X obj 106 138 del 0;
#X msg 61 158 8.5;
#X msg 106 160 0.5;
#X connect 0 0 7 0;
#X connect 1 0 2 0;
#X connect 2 0 9 0;
#X connect 3 0 8 0;
#X connect 4 0 3 0;
#X connect 5 0 4 0;
#X connect 5 0 1 0;
#X connect 6 0 5 0;
#X connect 8 0 10 0;
#X connect 9 0 11 0;
#X connect 10 0 0 0;
#X connect 11 0 0 0;
#X restore 619 210 pd gui-stuff;
#X obj 96 160 route float;
#X msg 417 25 version 0 1 0;
#X text 415 47 2013 \, Roman Haefeli;
#X obj 98 8 r \$0.spatial.V;
#X obj 96 138 r \$0.spatial.S;
#X obj 22 629 r \$0.spatial.1;
#X obj 127 659 r \$0.spatial.2;
#X obj 245 629 r \$0.spatial.3;
#X obj 350 659 r \$0.spatial.4;
#X obj 455 625 r \$0.spatial.5;
#X obj 560 655 r \$0.spatial.6;
#X obj 678 625 r \$0.spatial.7;
#X obj 783 655 r \$0.spatial.8;
#X msg 22 752 set out\$1;
#X msg 127 754 set out\$1;
#X msg 245 755 set out\$1;
#X msg 350 751 set out\$1;
#X msg 455 751 set out\$1;
#X msg 560 753 set out\$1;
#X msg 678 748 set out\$1;
#X msg 783 750 set out\$1;
#X obj 219 536 nbx 3 14 1 8 0 0 \$0.spatial.1 \$0.spatial.1 empty 0
-8 0 10 -262144 -1 -1 1 256;
#X obj 256 536 nbx 3 14 1 8 0 0 \$0.spatial.2 \$0.spatial.2 empty 0
-8 0 10 -262144 -1 -1 2 256;
#X obj 293 536 nbx 3 14 1 8 0 0 \$0.spatial.3 \$0.spatial.3 empty 0
-8 0 10 -262144 -1 -1 3 256;
#X obj 330 536 nbx 3 14 1 8 0 0 \$0.spatial.4 \$0.spatial.4 empty 0
-8 0 10 -262144 -1 -1 4 256;
#X obj 367 536 nbx 3 14 1 8 0 0 \$0.spatial.5 \$0.spatial.5 empty 0
-8 0 10 -262144 -1 -1 5 256;
#X obj 404 536 nbx 3 14 1 8 0 0 \$0.spatial.6 \$0.spatial.6 empty 0
-8 0 10 -262144 -1 -1 6 256;
#X obj 441 536 nbx 3 14 1 8 0 0 \$0.spatial.7 \$0.spatial.7 empty 0
-8 0 10 -262144 -1 -1 7 256;
#X obj 478 536 nbx 3 14 1 8 0 0 \$0.spatial.8 \$0.spatial.8 empty 0
-8 0 10 -262144 -1 -1 8 256;
#X msg 612 103 1 2 3 4 5 6 7 8;
#X msg 865 162 0.8;
#X obj 865 186 s \$0.spatial.V;
#X obj 755 48 route seq vol pos;
#X msg 315 45 1;
#X obj 593 77 t b b b;
#X obj 315 200 s \$0.spatial.S;
#X obj 454 365 tabread4 \$0-sine;
#X obj 345 365 tabread4 \$0-sine;
#X obj 236 365 tabread4 \$0-sine;
#X obj 127 365 tabread4 \$0-sine;
#X obj 18 365 tabread4 \$0-sine;
#X obj 563 365 tabread4 \$0-sine;
#X obj 672 365 tabread4 \$0-sine;
#X obj 781 365 tabread4 \$0-sine;
#X obj 315 93 - 0.5;
#X obj 315 177 + 0.5;
#X connect 1 0 2 0;
#X connect 2 0 3 0;
#X connect 3 0 140 0;
#X connect 4 0 134 0;
#X connect 6 0 139 0;
#X connect 7 0 8 0;
#X connect 8 0 9 0;
#X connect 9 0 138 0;
#X connect 10 0 137 0;
#X connect 11 0 12 0;
#X connect 12 0 13 0;
#X connect 13 0 136 0;
#X connect 14 0 141 0;
#X connect 15 0 16 0;
#X connect 16 0 17 0;
#X connect 17 0 142 0;
#X connect 18 0 143 0;
#X connect 19 0 20 0;
#X connect 20 0 6 0;
#X connect 21 0 22 0;
#X connect 22 0 10 0;
#X connect 23 0 24 0;
#X connect 24 0 14 0;
#X connect 25 0 26 0;
#X connect 26 0 18 0;
#X connect 27 0 19 0;
#X connect 28 0 7 0;
#X connect 29 0 21 0;
#X connect 30 0 11 0;
#X connect 31 0 23 0;
#X connect 32 0 15 0;
#X connect 33 0 38 0;
#X connect 34 0 35 0;
#X connect 35 0 1 0;
#X connect 35 0 27 0;
#X connect 35 0 28 0;
#X connect 35 0 29 0;
#X connect 35 0 30 0;
#X connect 35 0 31 0;
#X connect 35 0 32 0;
#X connect 35 0 33 0;
#X connect 36 0 37 0;
#X connect 37 0 25 0;
#X connect 38 0 36 0;
#X connect 39 0 41 1;
#X connect 40 0 39 0;
#X connect 41 0 69 0;
#X connect 42 0 44 1;
#X connect 43 0 42 0;
#X connect 44 0 70 0;
#X connect 45 0 47 1;
#X connect 46 0 45 0;
#X connect 47 0 71 0;
#X connect 48 0 50 1;
#X connect 49 0 48 0;
#X connect 50 0 72 0;
#X connect 51 0 53 1;
#X connect 52 0 51 0;
#X connect 53 0 65 0;
#X connect 54 0 56 1;
#X connect 55 0 54 0;
#X connect 56 0 66 0;
#X connect 57 0 59 1;
#X connect 58 0 57 0;
#X connect 59 0 67 0;
#X connect 60 0 62 1;
#X connect 61 0 60 0;
#X connect 62 0 68 0;
#X connect 63 0 98 0;
#X connect 73 0 41 0;
#X connect 74 0 44 0;
#X connect 75 0 47 0;
#X connect 76 0 50 0;
#X connect 77 0 53 0;
#X connect 78 0 56 0;
#X connect 79 0 59 0;
#X connect 80 0 62 0;
#X connect 81 0 83 0;
#X connect 82 0 34 0;
#X connect 83 0 145 0;
#X connect 84 0 81 0;
#X connect 91 0 132 0;
#X connect 94 0 95 0;
#X connect 94 1 95 1;
#X connect 95 0 96 0;
#X connect 96 0 97 0;
#X connect 97 0 98 1;
#X connect 98 0 64 0;
#X connect 100 0 82 0;
#X connect 103 0 94 0;
#X connect 104 0 100 0;
#X connect 105 0 113 0;
#X connect 106 0 114 0;
#X connect 107 0 115 0;
#X connect 108 0 116 0;
#X connect 109 0 117 0;
#X connect 110 0 118 0;
#X connect 111 0 119 0;
#X connect 112 0 120 0;
#X connect 113 0 69 0;
#X connect 114 0 70 0;
#X connect 115 0 71 0;
#X connect 116 0 72 0;
#X connect 117 0 65 0;
#X connect 118 0 66 0;
#X connect 119 0 67 0;
#X connect 120 0 68 0;
#X connect 129 0 92 0;
#X connect 130 0 131 0;
#X connect 132 0 92 0;
#X connect 132 1 131 0;
#X connect 132 2 144 0;
#X connect 133 0 144 0;
#X connect 134 0 133 0;
#X connect 134 1 129 0;
#X connect 134 2 130 0;
#X connect 136 0 52 0;
#X connect 137 0 49 0;
#X connect 138 0 46 0;
#X connect 139 0 43 0;
#X connect 140 0 40 0;
#X connect 141 0 55 0;
#X connect 142 0 58 0;
#X connect 143 0 61 0;
#X connect 144 0 84 0;
#X connect 145 0 135 0;
#X coords 0 -1 1 1 333 50 1 200 500;
