#N canvas 489 171 555 395 10;
#X obj 39 215 max 1;
#X obj 23 20 r~ \$1.source;
#X text 437 17 args:;
#X text 438 30 1) id;
#X text 438 43 2) out-channel;
#X text 438 55 3) x-pos;
#X text 438 67 y) y-pos;
#X obj 24 357 throw~ out\$2;
#X obj 179 15 r \$1.source.pos;
#X obj 179 37 unpack;
#X text 234 36 x y;
#X obj 179 58 - \$3;
#X obj 217 57 - \$4;
#X obj 179 101 pow 2;
#X obj 217 101 pow 2;
#X obj 179 124 +;
#X obj 179 145 pow 0.5;
#X obj 179 192 * 1;
#X obj 250 135 r \$1.scale;
#X obj 50 50 cnv 5 5 5 empty empty \$2 7 3 0 8 -162280 -66577 0;
#X obj 179 79 abs;
#X obj 217 80 abs;
#X obj 24 329 *~;
#X msg 39 237 1 \$1;
#X obj 39 259 /;
#X msg 39 281 \$1 20;
#X obj 39 303 line~;
#X obj 250 157 t b a;
#X connect 0 0 23 0;
#X connect 1 0 22 0;
#X connect 8 0 9 0;
#X connect 9 0 11 0;
#X connect 9 1 12 0;
#X connect 11 0 20 0;
#X connect 12 0 21 0;
#X connect 13 0 15 0;
#X connect 14 0 15 1;
#X connect 15 0 16 0;
#X connect 16 0 17 0;
#X connect 17 0 0 0;
#X connect 18 0 27 0;
#X connect 20 0 13 0;
#X connect 21 0 14 0;
#X connect 22 0 7 0;
#X connect 23 0 24 0;
#X connect 24 0 25 0;
#X connect 25 0 26 0;
#X connect 26 0 22 1;
#X connect 27 0 17 0;
#X connect 27 1 17 1;
#X coords 0 -1 1 1 5 5 2 50 50;
