#N canvas 220 44 513 391 10;
#X obj 134 13 r \$1;
#X obj 45 57 f;
#X obj 26 13 r state_dump_req;
#X obj 26 261 s state_dump_send;
#X obj 134 35 route resize;
#X obj 45 79 t a b;
#X obj 45 101 until;
#X obj 45 131 f;
#X obj 90 131 + 1;
#X msg 87 101 0;
#X obj 175 148 list trim;
#X obj 175 126 list append set \$1 0;
#X obj 45 156 tabread \$1;
#X msg 45 178 add2 \$1;
#X obj 26 35 t b b b;
#X msg 26 208;
#X connect 0 0 4 0;
#X connect 1 0 5 0;
#X connect 2 0 14 0;
#X connect 4 0 1 1;
#X connect 5 0 6 0;
#X connect 5 1 9 0;
#X connect 6 0 7 0;
#X connect 7 0 8 0;
#X connect 7 0 12 0;
#X connect 8 0 7 1;
#X connect 9 0 7 1;
#X connect 10 0 15 0;
#X connect 11 0 10 0;
#X connect 12 0 13 0;
#X connect 13 0 15 0;
#X connect 14 0 15 0;
#X connect 14 1 1 0;
#X connect 14 2 11 0;
#X connect 15 0 3 0;
