#N canvas 486 201 497 339 10;
#X obj 154 210 soundfiler;
#X obj 157 252 table \$0.wort;
#X obj 30 235 tabplay~ \$0.wort;
#X obj 30 257 outlet~;
#X obj 155 15 loadbang;
#X obj 154 106 list append \$0 \$1;
#X msg 154 149 read -resize ../klangteile/x_\$2.wav \$1.wort;
#X obj 23 34 hsl 40 14 1 1 0 0 \$0.start \$0.start.r play 4 7 0 10
-195568 -195568 -1 0 1;
#N canvas 512 267 313 215 start.button 0;
#X obj 21 38 spigot 1;
#X obj 21 60 t b b b;
#X msg 117 49 0;
#X obj 40 83 del 200;
#X msg 117 73 1;
#X msg 88 136 color \$1 \$1 -1;
#X msg 127 105 1;
#X obj 21 16 r \$0.start;
#X obj 88 158 s \$0.start.r;
#X msg 88 107 20;
#X obj 21 155 outlet;
#X connect 0 0 1 0;
#X connect 1 0 10 0;
#X connect 1 1 3 0;
#X connect 1 2 2 0;
#X connect 1 2 6 0;
#X connect 2 0 0 1;
#X connect 3 0 4 0;
#X connect 3 0 9 0;
#X connect 4 0 0 1;
#X connect 5 0 8 0;
#X connect 6 0 5 0;
#X connect 7 0 0 0;
#X connect 9 0 5 0;
#X restore 30 211 pd start.button;
#X obj 68 34 hsl 40 14 1 1 0 0 \$0.load \$0.load.r load 4 7 0 10 -195568
-195568 -1 0 1;
#N canvas 512 261 313 215 load.button 0;
#X obj 21 38 spigot 1;
#X obj 21 60 t b b b;
#X msg 117 49 0;
#X obj 40 83 del 200;
#X msg 117 73 1;
#X msg 88 136 color \$1 \$1 -1;
#X msg 127 105 1;
#X msg 88 107 20;
#X obj 21 155 outlet;
#X obj 88 158 s \$0.load.r;
#X obj 21 16 r \$0.load;
#X connect 0 0 1 0;
#X connect 1 0 8 0;
#X connect 1 1 3 0;
#X connect 1 2 2 0;
#X connect 1 2 6 0;
#X connect 2 0 0 1;
#X connect 3 0 4 0;
#X connect 3 0 7 0;
#X connect 4 0 0 1;
#X connect 5 0 9 0;
#X connect 6 0 5 0;
#X connect 7 0 5 0;
#X connect 10 0 0 0;
#X restore 313 30 pd load.button;
#X obj 155 37 list append \$1;
#X obj 155 59 route 0;
#X obj 194 82 b;
#X obj 313 75 openpanel;
#X obj 313 52 delay 300;
#X obj 313 100 list prepend \$0;
#X msg 313 123 read -resize \$2 \$1.wort;
#X connect 2 0 3 0;
#X connect 4 0 11 0;
#X connect 5 0 6 0;
#X connect 6 0 0 0;
#X connect 8 0 2 0;
#X connect 10 0 15 0;
#X connect 11 0 12 0;
#X connect 12 1 13 0;
#X connect 13 0 5 0;
#X connect 14 0 16 0;
#X connect 15 0 14 0;
#X connect 16 0 17 0;
#X connect 17 0 0 0;
#X coords 0 -1 1 1 90 28 1 20 20;
